<svg xmlns="http://www.w3.org/2000/svg" width="1440" height="320" fill="none">
    <g clip-path="url(#a)">
        <path fill="#F0F0F0" d="m0 160 80 16c80 16 240 48 400 21.3C640 171 800 85 960 64c160-21 320 21 400 42.7l80 21.3v192H0V160Z"/>
        <g clip-path="url(#b)">
            <path fill="#939698" d="m12.233 174.932 1.415-1.426 14.23 2.758.417 1.781-16.062-3.113Z"/>
            <path fill="#575A5B" d="m28.047 176.858-14.832-2.875-.982.949 16.062 3.113-.248-1.187Z"/>
            <path fill="#939698" d="m11.047 181.053.349 1.233 7.34 1.423.597-1.05-8.286-1.606Z"/>
            <path fill="#575A5B" d="m18.95 183.367-7.655-1.484-.248-.83 8.286 1.606-.384.708Z"/>
            <path fill="#939698" d="m20.652 183.219.097.88 3.304.64.327-.797-3.728-.723Z"/>
            <path fill="#575A5B" d="m24.166 184.478-3.44-.667-.074-.592 3.728.723-.214.536Z"/>
            <path fill="#626467" d="m5.72 175.554.156-.81s-.966-.969-2.659-1.255c0 0-.275.419-.399 1.083-.14.665-.034 1.153-.034 1.153 1.676.367 2.935-.171 2.935-.171Z"/>
            <path fill="url(#c)" d="M4.868 175.777c.527-.092.846-.224.846-.224l.157-.81s-.25-.248-.72-.533a4.365 4.365 0 0 0-.284 1.572v-.005Z"/>
            <path fill="#3A3C3F" d="m3.536 173.551-.142-.028a3.73 3.73 0 0 0-.336 1.006 5.229 5.229 0 0 0-.082 1.233l.137.027c-.065-1.21.285-1.987.423-2.238Zm.429.114c-.046-.008-.09-.027-.134-.041-.093.181-.235.51-.327.986-.065.334-.107.74-.083 1.212.046.009.093.008.134.01-.05-1.143.263-1.896.41-2.172v.005Zm.328 2.179a.817.817 0 0 0 .134-.011c-.014-.879.192-1.506.34-1.839-.038-.018-.08-.042-.124-.061a3.991 3.991 0 0 0-.265.852 5.2 5.2 0 0 0-.09 1.058l.005.001Zm.08-2.031c-.044-.019-.084-.032-.128-.051a3.667 3.667 0 0 0-.301.933c-.062.319-.1.705-.087 1.154h.136c-.036-1.031.23-1.729.38-2.036Zm.36 1.985c.048-.006.091-.013.135-.021.006-.707.156-1.24.284-1.572a4.012 4.012 0 0 0-.123-.071 4.137 4.137 0 0 0-.21.731 4.894 4.894 0 0 0-.085.928l-.001.005Z"/>
            <path fill="#B3B5B8" d="m5.72 175.554.156-.81s-.966-.969-2.659-1.255c0 0-.022.032-.053.084.393.055.774.229 1.141.368.245.09.819.327.72.696-.11.409-1.802-.013-2.205-.076l-.003.016c-.14.665-.034 1.153-.034 1.153 1.676.367 2.935-.171 2.935-.171l.001-.005Z" opacity=".6" style="mix-blend-mode:multiply"/>
            <path fill="#B3B5B8" d="m5.72 175.554.08-.415c-.979.256-2.047.217-3.053.07-.004.319.037.516.037.516 1.676.367 2.935-.171 2.935-.171Z" opacity=".6" style="mix-blend-mode:multiply"/>
            <path fill="#626467" d="m5.21 178.184.157-.809s-.967-.969-2.66-1.255c0 0-.275.419-.399 1.082-.138.661-.034 1.153-.034 1.153 1.677.367 2.936-.171 2.936-.171Z"/>
            <path fill="url(#d)" d="M4.358 178.408c.527-.092.847-.225.847-.225l.156-.809s-.25-.253-.72-.533c-.133.331-.277.859-.284 1.572l.001-.005Z"/>
            <path fill="#3A3C3F" d="m3.026 176.181-.142-.027a3.719 3.719 0 0 0-.336 1.005 5.309 5.309 0 0 0-.083 1.239l.137.026c-.065-1.209.285-1.986.423-2.238l.001-.005Zm.43.115-.135-.042a3.726 3.726 0 0 0-.327.987c-.065.333-.107.74-.083 1.212.046.009.093.007.135.01-.052-1.144.262-1.896.41-2.172v.005Zm.327 2.179a.946.946 0 0 0 .134-.011c-.013-.884.192-1.506.34-1.839-.038-.018-.08-.042-.124-.061a3.978 3.978 0 0 0-.265.851 5.215 5.215 0 0 0-.09 1.059l.005.001Zm.08-2.032c-.044-.019-.084-.032-.127-.051a3.692 3.692 0 0 0-.302.934c-.062.319-.1.705-.087 1.153.047-.001.089.002.136.001-.036-1.031.23-1.73.38-2.037Zm.36 1.986.135-.021a4.48 4.48 0 0 1 .284-1.572l-.123-.071a4.15 4.15 0 0 0-.21.73 4.874 4.874 0 0 0-.085.929l-.001.005Z"/>
            <path fill="#B3B5B8" d="m5.21 178.184.157-.809s-.967-.969-2.66-1.255c0 0-.022.032-.053.084.394.055.775.229 1.141.368.245.089.819.326.721.696-.11.409-1.803-.014-2.206-.076l-.003.015c-.138.661-.034 1.154-.034 1.154 1.677.367 2.936-.172 2.936-.172v-.005Z" opacity=".6" style="mix-blend-mode:multiply"/>
            <path fill="#B3B5B8" d="m5.21 178.184.08-.414c-.979.256-2.047.217-3.053.069-.004.32.037.516.037.516 1.677.367 2.936-.171 2.936-.171Z" opacity=".6" style="mix-blend-mode:multiply"/>
            <path fill="#9D9FA1" d="m8.852 177.536.056.011.012-.229.074-.216-.056-.011.247-3.6-4.284.246-1.047 5.402 3.881 1.829 1.117-3.432Z"/>
            <path fill="#9D9FA1" d="M8.476 178.691c-1.144-.436-2.266-.927-3.427-1.33-.265-.094-.534-.172-.8-.255l-.394 2.028 3.88 1.834.736-2.278.005.001Zm.69-4.858.024-.341-4.284.246-.076.394c1.446-.124 2.888-.222 4.335-.299Z" opacity=".5" style="mix-blend-mode:multiply"/>
            <path fill="#C2C4C6" d="m49.3 181.266-1.45 7.482-40.11-7.774 1.45-7.482 40.11 7.774Z"/>
            <path fill="#3E4042" d="m10.733 173.791-1.45 7.482-1.543-.299 1.45-7.482 1.543.299Zm30.337 5.88-1.45 7.482-.627-.122 1.45-7.482.627.122Zm-1.33-.258-1.45 7.482-.628-.122 1.45-7.482.628.122Z"/>
            <path fill="#76797B" d="M57.49 187.241c.335-.129.397-.338.404-.426.021-.085.042-.301-.215-.545-.337-.317-6.141-4.387-8.445-5.012l-1.45 7.482c2.364.285 9.274-1.325 9.706-1.494v-.005Z"/>
            <path fill="#fff" d="M57.446 186.445s-4.675-3.179-7.453-4.473c0 0-.584-.344-.678.278l-.541 2.793s-.324.939.541 1.049c.866.11 8.13.353 8.13.353Zm-9.323-.946.634-3.268s.254-.496-1.286-.784l-34.896-6.764s-1.264-.276-1.785.274l-.741 2.743s-.157.809 1.37 1.105l35.553 6.891s1.073.208 1.146-.198l.005.001Z" opacity=".4"/>
            <path fill="#C2C4C6" d="M5.129 174.243a.15.15 0 0 1-.119-.176.154.154 0 0 1 .176-.123.15.15 0 0 1 .118.18.147.147 0 0 1-.175.119ZM4.824 175.029a.15.15 0 1 0 .294.057.15.15 0 0 0-.294-.057ZM4.638 175.99a.15.15 0 1 0 .293.057.15.15 0 0 0-.293-.057ZM4.451 176.951a.15.15 0 1 0 .294.057.15.15 0 0 0-.294-.057ZM4.264 177.917a.149.149 0 0 0 .118.175.149.149 0 1 0 .057-.293.149.149 0 0 0-.175.118ZM4.195 179.059a.15.15 0 0 1-.118-.176.154.154 0 0 1 .176-.123.15.15 0 0 1 .117.18.147.147 0 0 1-.175.119Z"/>
            <path fill="#3A3C3F" d="m25.28 182.038-.332 1.709-1.022-.198.332-1.71 1.022.199Zm-1.25-.243-.331 1.71-.532-.103.332-1.71.531.103Zm-5.418-1.05-.331 1.71-.577-.112.331-1.71.577.112Zm-.81-.157-.33 1.71-2.576-.499.332-1.71 2.575.499Zm-2.807-.544-.331 1.71-1.624-.315.331-1.71 1.624.315Zm-3.946-.765-.331 1.71-.668-.129.332-1.71.667.129Z"/>
            <path fill="#61626B" d="M46.55 181.132c-.05-.01-.088-.059-.078-.11a.097.097 0 0 1 .114-.077c.056.01.084.058.073.113-.011.056-.058.083-.109.074Zm-.222 1.148a.098.098 0 0 1-.078-.115c.01-.055.058-.083.114-.072a.09.09 0 0 1 .073.109c-.01.05-.059.088-.11.078Zm-.223 1.148a.097.097 0 0 1-.077-.114.095.095 0 0 1 .114-.078c.056.011.083.058.073.114-.011.056-.06.088-.11.078Zm-.224 1.154c-.05-.01-.088-.059-.078-.11a.097.097 0 0 1 .115-.077c.055.01.083.058.072.113a.09.09 0 0 1-.109.074Zm-.222 1.148c-.05-.01-.088-.059-.079-.11.01-.05.06-.088.115-.077.056.011.083.058.073.114a.09.09 0 0 1-.11.073Zm-.223 1.148a.097.097 0 0 1-.077-.114c.01-.056.058-.084.114-.073a.09.09 0 0 1 .073.109c-.01.051-.06.088-.11.078Zm-.222 1.149a.098.098 0 0 1-.078-.115c.011-.056.058-.083.114-.072.056.01.083.058.073.108-.01.051-.059.089-.11.079Zm-18.53-10.746a.092.092 0 0 1-.073-.108c.01-.051.059-.089.11-.079.05.01.083.058.072.114a.089.089 0 0 1-.109.073Zm-.222 1.149c-.05-.01-.084-.058-.073-.114a.089.089 0 0 1 .109-.073c.05.009.083.058.073.108-.01.051-.059.089-.11.079Zm-.223 1.148c-.05-.01-.083-.058-.072-.114.01-.055.059-.088.11-.078.05.01.083.058.072.114-.01.055-.06.088-.11.078Zm-.223 1.153a.092.092 0 0 1-.074-.108.098.098 0 0 1 .11-.079c.05.01.083.058.072.114a.089.089 0 0 1-.108.073Zm-.223 1.149a.093.093 0 0 1-.073-.109c.01-.05.059-.088.11-.078.05.009.083.058.072.113a.09.09 0 0 1-.109.074Zm-.223 1.148c-.05-.01-.083-.058-.072-.114a.09.09 0 0 1 .109-.073c.05.01.083.058.073.109-.01.05-.059.088-.11.078Zm-.222 1.149c-.05-.01-.083-.059-.072-.114.01-.056.058-.083.108-.074.05.01.083.058.074.109a.098.098 0 0 1-.11.079Z"/>
            <path fill="#939698" d="m17.88 145.798 1.415-1.426 14.23 2.758.416 1.781-16.061-3.113Z"/>
            <path fill="#575A5B" d="M33.694 147.724 18.86 144.85l-.982.948 16.062 3.113-.247-1.187Z"/>
            <path fill="#939698" d="m16.693 151.92.35 1.232 7.34 1.423.597-1.049-8.287-1.606Z"/>
            <path fill="#575A5B" d="m24.596 154.233-7.654-1.483-.249-.83 8.287 1.606-.384.707Z"/>
            <path fill="#939698" d="m26.298 154.091.098.874 3.303.641.327-.793-3.728-.722Z"/>
            <path fill="#575A5B" d="m29.813 155.344-3.44-.667-.075-.586 3.728.722-.213.531Z"/>
            <path fill="#626467" d="m11.366 146.42.157-.809s-.967-.97-2.66-1.256c0 0-.275.419-.398 1.083-.14.666-.035 1.153-.035 1.153 1.677.367 2.936-.171 2.936-.171Z"/>
            <path fill="url(#e)" d="M10.514 146.644c.527-.092.847-.225.847-.225l.157-.809s-.25-.253-.72-.533a4.362 4.362 0 0 0-.285 1.572l.001-.005Z"/>
            <path fill="#3A3C3F" d="m9.182 144.417-.141-.027a3.719 3.719 0 0 0-.337 1.005 5.31 5.31 0 0 0-.083 1.239l.137.026c-.064-1.214.285-1.986.423-2.238l.001-.005Zm.43.115c-.046-.009-.09-.028-.134-.042a3.729 3.729 0 0 0-.328.986 5.016 5.016 0 0 0-.083 1.213c.046.008.094.007.135.01-.05-1.149.263-1.896.41-2.172v.005Zm.328 2.179c.047-.002.09-.004.133-.011-.013-.879.192-1.506.34-1.839-.038-.018-.08-.042-.124-.061a3.978 3.978 0 0 0-.265.851 5.215 5.215 0 0 0-.09 1.059l.006.001Zm.078-2.027c-.044-.019-.083-.032-.127-.051a3.692 3.692 0 0 0-.302.934c-.061.319-.1.705-.087 1.153.048-.001.09.002.137.001-.037-1.031.23-1.73.379-2.037Zm.361 1.981.135-.021a4.48 4.48 0 0 1 .284-1.572c-.037-.024-.08-.048-.123-.072a4.184 4.184 0 0 0-.21.731 4.903 4.903 0 0 0-.085.929v.005Z"/>
            <path fill="#B3B5B8" d="m11.366 146.42.157-.809s-.967-.97-2.66-1.256l-.052.085c.393.055.774.228 1.14.368.246.089.82.326.721.696-.11.409-1.804-.009-2.205-.076l-.003.015c-.14.666-.035 1.153-.035 1.153 1.677.367 2.936-.171 2.936-.171l.001-.005Z" opacity=".6" style="mix-blend-mode:multiply"/>
            <path fill="#B3B5B8" d="m11.366 146.42.08-.415c-.977.252-2.047.218-3.052.07-.004.32.036.516.036.516 1.677.367 2.936-.171 2.936-.171Z" opacity=".6" style="mix-blend-mode:multiply"/>
            <path fill="#626467" d="m10.856 149.051.157-.81s-.967-.969-2.66-1.255c0 0-.275.419-.398 1.083-.139.66-.035 1.153-.035 1.153 1.677.367 2.936-.171 2.936-.171Z"/>
            <path fill="url(#f)" d="M10.005 149.274c.525-.087.846-.224.846-.224l.157-.81s-.25-.253-.72-.533a4.366 4.366 0 0 0-.284 1.572v-.005Z"/>
            <path fill="#3A3C3F" d="m8.672 147.048-.141-.028a3.729 3.729 0 0 0-.337 1.006 5.3 5.3 0 0 0-.082 1.238l.136.027c-.064-1.215.286-1.987.423-2.238l.001-.005Zm.43.114c-.046-.008-.09-.027-.134-.041a3.715 3.715 0 0 0-.328.986c-.064.334-.106.74-.082 1.212.045.009.093.008.134.011-.051-1.144.263-1.897.41-2.173v.005Zm.328 2.179a.817.817 0 0 0 .133-.011c-.012-.884.192-1.505.341-1.839-.039-.018-.081-.042-.125-.061a3.99 3.99 0 0 0-.264.852 5.199 5.199 0 0 0-.09 1.058l.005.001Zm.079-2.031c-.044-.019-.083-.032-.127-.051a3.667 3.667 0 0 0-.302.933c-.061.319-.1.705-.087 1.154.047.004.09.001.137 0-.037-1.03.23-1.729.379-2.036Zm.36 1.985c.049-.006.092-.013.136-.021.005-.707.156-1.24.283-1.572-.037-.023-.08-.047-.123-.071a4.216 4.216 0 0 0-.21.731 4.864 4.864 0 0 0-.085.928v.005Z"/>
            <path fill="#B3B5B8" d="m10.856 149.051.157-.81s-.967-.969-2.66-1.255c0 0-.021.032-.052.084.394.05.774.229 1.14.368.246.09.82.327.721.696-.11.409-1.803-.013-2.205-.075l-.003.015c-.139.66-.035 1.153-.035 1.153 1.677.367 2.936-.171 2.936-.171l.001-.005Z" opacity=".6" style="mix-blend-mode:multiply"/>
            <path fill="#B3B5B8" d="m10.856 149.051.08-.415c-.978.257-2.047.217-3.052.07-.004.319.036.516.036.516 1.677.367 2.936-.171 2.936-.171Z" opacity=".6" style="mix-blend-mode:multiply"/>
            <path fill="#9D9FA1" d="m14.498 148.408.055.01.014-.233.073-.217-.055-.011.246-3.6-4.284.251-1.046 5.398 3.88 1.833 1.117-3.431Z"/>
            <path fill="#9D9FA1" d="M14.121 149.563c-1.143-.437-2.266-.927-3.426-1.331a16.537 16.537 0 0 0-.801-.255l-.393 2.029 3.88 1.833.735-2.277.005.001Zm.69-4.858.024-.342-4.284.251-.077.395a131.24 131.24 0 0 1 4.336-.299l.001-.005Z" opacity=".5" style="mix-blend-mode:multiply"/>
            <path fill="#C2C4C6" d="m54.947 152.132-1.449 7.477-40.11-7.774 1.448-7.477 40.111 7.774Z"/>
            <path fill="#3E4042" d="m16.38 144.657-1.45 7.477-1.543-.299 1.45-7.477 1.542.299Zm30.337 5.88-1.45 7.477-.627-.122 1.45-7.476.627.121Zm-1.33-.258-1.45 7.477-.627-.121 1.449-7.477.627.121Z"/>
            <path fill="#76797B" d="M63.137 158.108c.335-.13.396-.338.403-.426.022-.085.043-.302-.215-.546-.337-.317-6.14-4.386-8.445-5.011l-1.449 7.477c2.365.285 9.275-1.326 9.706-1.494Z"/>
            <path fill="#fff" d="M63.092 157.312s-4.675-3.179-7.452-4.473c0 0-.584-.344-.679.278l-.541 2.792s-.324.94.542 1.05c.866.11 8.13.353 8.13.353Zm-9.322-.946.633-3.268s.254-.497-1.286-.785l-34.895-6.763s-1.264-.277-1.785.273l-.742 2.743s-.157.81 1.37 1.106l35.554 6.89s1.072.208 1.146-.197l.005.001Z" opacity=".4"/>
            <path fill="#C2C4C6" d="M10.657 144.934a.15.15 0 1 0 .293.057.15.15 0 0 0-.293-.057ZM10.589 146.07a.149.149 0 0 1-.119-.175.154.154 0 0 1 .177-.123.15.15 0 0 1 .117.18.146.146 0 0 1-.175.118Zm-.188.966a.15.15 0 0 1-.118-.175.154.154 0 0 1 .176-.123.15.15 0 0 1 .118.18.146.146 0 0 1-.175.118ZM10.097 147.822a.15.15 0 0 0 .118.176.15.15 0 1 0-.118-.176ZM9.91 148.784a.15.15 0 1 0 .294.057.15.15 0 0 0-.293-.057ZM9.842 149.925a.15.15 0 0 1-.119-.175.153.153 0 0 1 .176-.123.15.15 0 0 1 .118.18.146.146 0 0 1-.175.118Z"/>
            <path fill="#3A3C3F" d="m30.926 152.904-.331 1.71-1.022-.198.331-1.71 1.022.198Zm-1.25-.242-.33 1.71-.532-.103.331-1.71.532.103Zm-5.417-1.05-.332 1.71-.576-.112.33-1.71.578.112Zm-.81-.157-.331 1.71-2.575-.499.331-1.71 2.575.499Zm-2.807-.544-.332 1.71-1.624-.315.332-1.71 1.624.315Zm-3.946-.765-.332 1.71-.667-.13.331-1.709.668.129Z"/>
            <path fill="#61626B" d="M52.197 151.998c-.05-.01-.089-.059-.079-.11.01-.05.06-.088.115-.077.056.011.083.058.072.114a.09.09 0 0 1-.108.073Zm-.223 1.149a.099.099 0 0 1-.077-.115c.01-.056.058-.083.113-.073a.09.09 0 0 1 .074.109.098.098 0 0 1-.11.079Zm-.223 1.153a.098.098 0 0 1-.078-.115.095.095 0 0 1 .115-.077c.055.01.083.058.072.113-.01.056-.059.089-.11.079Zm-.223 1.148a.098.098 0 0 1-.078-.114.095.095 0 0 1 .115-.078c.056.011.083.058.073.114-.011.055-.06.088-.11.078Zm-.223 1.149c-.05-.01-.088-.059-.078-.11.01-.051.058-.083.114-.073a.09.09 0 0 1 .073.109.093.093 0 0 1-.109.074Zm-.222 1.148a.098.098 0 0 1-.078-.115c.011-.055.058-.083.114-.072a.089.089 0 0 1 .074.108c-.01.051-.06.089-.11.079Zm-.224 1.153a.097.097 0 0 1-.077-.114.095.095 0 0 1 .115-.078c.055.011.083.058.072.114-.01.056-.06.088-.11.078Zm-18.528-10.75a.093.093 0 0 1-.074-.109c.01-.05.06-.088.11-.078.05.01.083.058.073.113a.09.09 0 0 1-.11.074Zm-.223 1.148c-.05-.01-.083-.058-.072-.114a.09.09 0 0 1 .108-.073c.051.01.084.058.074.109-.01.05-.06.088-.11.078Zm-.223 1.154c-.05-.01-.084-.058-.073-.114a.094.094 0 0 1 .11-.079c.05.01.083.059.072.114a.094.094 0 0 1-.11.079Zm-.223 1.148c-.05-.01-.083-.058-.072-.114.01-.055.059-.088.11-.078.05.01.083.058.072.114-.011.055-.06.088-.11.078Zm-.222 1.148a.092.092 0 0 1-.074-.108.093.093 0 1 1 .073.108Zm-.223 1.149c-.05-.01-.083-.058-.072-.114.01-.056.058-.083.108-.074.05.01.084.059.074.109a.098.098 0 0 1-.11.079Zm-.223 1.153c-.051-.01-.084-.058-.073-.114.01-.055.06-.088.11-.078.05.01.083.058.072.114-.01.055-.059.088-.11.078Z"/>
            <path fill="url(#g)" d="m64.087 162.874-3.698 19.082-48.878-9.473 3.698-19.082 48.878 9.473Z"/>
            <path fill="url(#h)" d="m62.112 173.068-1.724 8.893-48.878-9.473 1.724-8.894 48.878 9.474Z" style="mix-blend-mode:multiply"/>
            <path fill="#3E4042" d="m60.991 162.274-3.698 19.082-1.416-.275 3.698-19.082 1.416.275Z"/>
            <path fill="#AAACAE" d="M84.983 178.12c.847-.335 1.008-.87 1.036-1.096.059-.22.113-.771-.553-1.398-.856-.807-15.675-11.2-21.546-12.784l-3.698 19.081c6.038.724 23.665-3.375 24.762-3.808v.005Z"/>
            <path fill="#AAACAE" d="M84.983 178.12c.847-.335 1.008-.87 1.036-1.096.059-.22.113-.771-.553-1.398-.856-.807-15.675-11.2-21.546-12.784l-3.698 19.081c6.038.724 23.665-3.375 24.762-3.808v.005Z"/>
            <path fill="#76797B" d="M70.373 175.262c-2.89-.308-5.783-.628-8.669-1.014l-1.487 7.674c6.037.724 23.665-3.375 24.762-3.808.664-.26.907-.643.994-.905-5.222-.408-10.39-1.394-15.599-1.952v.005Z"/>
            <path fill="#EFEFF0" d="M84.877 176.094s-11.929-8.107-19.02-11.412c0 0-1.487-.882-1.731.703l-.37 1.907 21.121 8.802Zm-23.503-3.878 1.333-6.88s.45-1.314-1.449-1.651l-14.002-2.714c.44.763 1.246 1.318 1.99 1.756 1.074.633 2.182 1.2 3.257 1.828 2.174 1.266 4.133 2.859 5.57 4.953.466.678 1.033 1.518 1.085 2.278l2.216.43Z" opacity=".4" style="mix-blend-mode:screen"/>
            <path fill="#61626B" d="M63.372 163.449a.17.17 0 0 1-.135-.194.176.176 0 0 1 .199-.135.17.17 0 0 1 .135.2c-.02.096-.103.148-.199.129Zm-.392 2.024a.172.172 0 0 1-.135-.199.167.167 0 0 1 .199-.13.166.166 0 0 1 .107.071.166.166 0 0 1-.045.232.17.17 0 0 1-.126.026Zm-.391 2.018a.17.17 0 0 1-.136-.194.176.176 0 0 1 .2-.135.172.172 0 0 1 .134.2.163.163 0 0 1-.198.129Zm-.391 2.019a.173.173 0 0 1-.135-.2.171.171 0 0 1 .2-.134.17.17 0 0 1 .134.199.169.169 0 0 1-.2.135Zm-.392 2.018a.171.171 0 0 1-.134-.199.172.172 0 0 1 .2-.135.173.173 0 0 1 .134.2.168.168 0 0 1-.2.134Zm-.392 2.024a.173.173 0 0 1-.134-.2.171.171 0 0 1 .199-.134.17.17 0 0 1 .135.199.169.169 0 0 1-.2.135Zm-.391 2.018a.172.172 0 0 1-.135-.199.168.168 0 0 1 .199-.13.172.172 0 0 1 .135.195.17.17 0 0 1-.199.134Zm-.397 2.049a.17.17 0 0 1-.136-.194.175.175 0 0 1 .2-.135.168.168 0 0 1 .134.199c-.018.097-.102.149-.198.13Zm-.391 2.018a.171.171 0 0 1-.135-.199.167.167 0 0 1 .198-.129.164.164 0 0 1 .107.07.169.169 0 0 1-.045.233.164.164 0 0 1-.125.025Zm-.392 2.019a.172.172 0 0 1-.134-.199.17.17 0 0 1 .2-.135.171.171 0 0 1 .134.199.169.169 0 0 1-.2.135Z"/>
            <path fill="url(#i)" d="m11.31 167.641.41-2.11s-2.518-2.529-6.93-3.274c0 0-.72 1.089-1.035 2.823-.356 1.731-.094 3.005-.094 3.005 4.37.957 7.65-.449 7.65-.449v.005Z"/>
            <path fill="url(#j)" d="M9.108 168.227c1.378-.231 2.202-.586 2.202-.586l.41-2.11s-.651-.651-1.873-1.391c-.34.863-.724 2.248-.745 4.091l.006-.004Z"/>
            <path fill="#657483" d="M5.634 162.426a9.251 9.251 0 0 1-.362-.081c-.24.457-.632 1.337-.882 2.627-.171.885-.27 1.963-.214 3.218.121.023.238.046.356.058-.165-3.155.744-5.167 1.103-5.827v.005Zm1.108.298a9.507 9.507 0 0 0-.348-.104c-.242.468-.614 1.33-.854 2.569-.17.87-.269 1.927-.214 3.161.118.012.238.019.35.031-.14-2.988.689-4.932 1.066-5.657Zm.864 5.669c.117-.009.24-.017.352-.027-.033-2.295.498-3.924.88-4.789l-.32-.157a10.22 10.22 0 0 0-.687 2.213 13.56 13.56 0 0 0-.23 2.759l.005.001Zm.2-5.284c-.107-.042-.219-.09-.332-.127-.242.488-.568 1.307-.787 2.435a13.24 13.24 0 0 0-.22 3.002l.351.005c-.089-2.684.594-4.499.992-5.309l-.004-.006Zm.945 5.17c.12-.019.239-.038.352-.053.021-1.843.404-3.223.745-4.091-.098-.061-.206-.124-.31-.186-.193.482-.4 1.119-.553 1.908-.135.693-.223 1.5-.229 2.423l-.005-.001Z"/>
            <path fill="#B3B5B8" d="m11.31 167.641.41-2.11s-2.518-2.529-6.93-3.274c0 0-.052.079-.133.226 1.029.136 2.02.602 2.98.961.63.237 2.134.849 1.88 1.808-.285 1.062-4.703-.03-5.75-.202l-.008.036c-.356 1.731-.094 3.005-.094 3.005 4.37.957 7.65-.449 7.65-.449l-.005-.001Z" opacity=".6" style="mix-blend-mode:multiply"/>
            <path fill="#B3B5B8" d="m11.31 167.641.21-1.083c-2.548.661-5.337.567-7.951.186-.013.827.09 1.346.09 1.346 4.371.957 7.651-.449 7.651-.449Z" opacity=".6" style="mix-blend-mode:multiply"/>
            <path fill="url(#k)" d="m12.815 159.881.408-2.11s-2.517-2.529-6.929-3.274c0 0-.72 1.088-1.035 2.822-.356 1.732-.094 3.006-.094 3.006 4.37.957 7.65-.449 7.65-.449v.005Z"/>
            <path fill="url(#l)" d="M10.612 160.467c1.378-.232 2.203-.586 2.203-.586l.408-2.11s-.65-.651-1.872-1.391c-.34.863-.724 2.248-.745 4.091l.006-.004Z"/>
            <path fill="#657483" d="M7.138 154.666c-.121-.024-.237-.052-.363-.076-.24.457-.632 1.337-.882 2.627-.171.885-.27 1.963-.214 3.218.121.023.238.046.356.058-.165-3.155.744-5.167 1.103-5.827Zm1.107.303a9.507 9.507 0 0 0-.348-.104c-.242.468-.614 1.33-.854 2.569-.17.87-.269 1.927-.214 3.161.118.012.237.024.35.031-.14-2.988.689-4.932 1.066-5.657Zm.864 5.669c.117-.009.24-.017.352-.027-.033-2.295.498-3.924.88-4.789l-.32-.157a10.224 10.224 0 0 0-.687 2.213 13.56 13.56 0 0 0-.23 2.759l.005.001Zm.2-5.284c-.107-.042-.219-.09-.331-.132-.242.488-.568 1.307-.787 2.435a13.231 13.231 0 0 0-.22 3.001c.12.003.236.004.352 0-.089-2.683.594-4.498.992-5.308l-.006.004Zm.946 5.165c.12-.019.239-.038.352-.053.021-1.843.404-3.223.745-4.091-.098-.061-.206-.124-.31-.186a10.5 10.5 0 0 0-.553 1.908c-.135.693-.223 1.5-.229 2.423l-.005-.001Z"/>
            <path fill="#B3B5B8" d="m12.815 159.881.408-2.11s-2.517-2.529-6.929-3.274c0 0-.052.079-.133.226 1.029.136 2.02.601 2.98.96.63.238 2.134.85 1.88 1.808-.285 1.063-4.703-.029-5.75-.201l-.008.036c-.356 1.731-.094 3.005-.094 3.005 4.37.957 7.65-.449 7.65-.449l-.005-.001Z" opacity=".6" style="mix-blend-mode:multiply"/>
            <path fill="#B3B5B8" d="m12.815 159.881.21-1.083c-2.549.661-5.338.567-7.952.186-.013.827.091 1.346.091 1.346 4.37.957 7.65-.449 7.65-.449Z" opacity=".6" style="mix-blend-mode:multiply"/>
            <path fill="url(#m)" d="M47.835 163.587s-.804-2.622-4.278-4.004c-3.475-1.382-6.195-3.19-7.921-6.931s-6.78-11.355-17.797-12.903c0 0-.576-.222-.819.597-.242.819-3.885 14.821-3.885 14.821l-.455 2.347 35.156 6.068v.005Z"/>
            <path fill="#fff" d="M42.667 162.712s-.665-2.176-3.546-3.317c-2.88-1.146-5.135-2.644-6.565-5.745-1.43-3.101-5.619-9.413-14.746-10.689 0 0-.478-.187-.678.493-.2.681-3.22 12.283-3.22 12.283l-.378 1.948 29.132 5.032v-.005Z"/>
            <path fill="url(#n)" d="M47.835 163.587s-.299-.976-1.324-2.051c-3.005-.772-20.592-5.277-25.143-6.464-4.982-1.296-4.629-4.256-4.056-7.783.574-3.526 2.058-5.768 5.271-5.313 3.213.46 9.298 5.056 9.307 5.063-2.884-3.184-7.372-6.352-14.05-7.29 0 0-.577-.222-.82.597-.242.819-3.885 14.821-3.885 14.821l-.455 2.347 35.156 6.068v.005Z" style="mix-blend-mode:multiply"/>
            <path fill="#fff" d="M43.256 159.671s-4.652-1.563-6.767-4.865c-2.116-3.302-2.793-7.039-7.25-9.472 0 0 3.224 1.7 5.053 6.044 1.83 4.349 3.521 7.128 8.97 8.294l-.006-.001Z" style="mix-blend-mode:screen"/>
            <path fill="url(#o)" d="M45.58 175.228s-1.726 2.132-5.466 2.116c-3.739-.016-6.938.645-9.936 3.47-3 2.825-10.532 8-21.328 5.319 0 0-.618-.009-.537-.86.08-.85 1.933-15.198 1.933-15.198l.454-2.348 34.878 7.506.001-.005Z"/>
            <path fill="#fff" d="M40.458 174.109s-1.429 1.765-4.528 1.752c-3.1-.013-5.751.534-8.236 2.876-2.486 2.342-8.729 6.633-17.672 4.406 0 0-.512-.01-.445-.711.069-.706 1.602-12.596 1.602-12.596l.377-1.948 28.903 6.216-.001.005Z"/>
            <path fill="url(#p)" d="M45.58 175.228s-.643.794-1.995 1.408c-3.076-.407-21.073-2.798-25.738-3.398-5.106-.659-5.884 2.219-6.67 5.704-.785 3.485-.246 6.12 2.905 6.898 3.151.774 10.513-1.216 10.524-1.219-3.865 1.875-9.206 3.139-15.756 1.512 0 0-.618-.009-.537-.86.08-.85 1.933-15.198 1.933-15.198l.454-2.348 34.878 7.506.001-.005Z" style="mix-blend-mode:multiply"/>
            <path fill="#fff" d="M39.869 177.149s-4.9-.288-8.096 1.985c-3.196 2.272-5.22 5.486-10.263 6.078 0 0 3.626-.373 6.946-3.719 3.32-3.351 5.929-5.296 11.418-4.343l-.005-.001Z" style="mix-blend-mode:screen"/>
            <path fill="url(#q)" d="M41.14 175.469c7.892.874 13.44-1.027 15.764-2.613.412-.256.819-.623.97-1.13.014-.049.03-.099.039-.149a.793.793 0 0 0 .02-.154c.049-.526-.192-1.019-.478-1.41-1.557-2.338-6-6.175-13.647-8.314-7.798-2.178-30.723-6.301-30.723-6.301s-1.306-.116-2.572 2.599c-.456.971-.904 2.307-1.286 4.144-.33 1.841-.409 3.248-.354 4.319.16 2.991 1.415 3.371 1.415 3.371s22.806 4.74 30.852 5.633v.005Z"/>
            <path fill="url(#r)" d="M45.464 167.426s-.056-3.963-3.77-4.971c-3.716-1.009-27.763-5.381-27.763-5.381s-1.503-.48-2.318.884c-.817 1.369-1.853 4.711 1.31 5.177 3.16.466 29.473 5.712 29.473 5.712s3.073.853 3.074-1.425l-.006.004Z" style="mix-blend-mode:screen"/>
            <path fill="url(#s)" d="M57.544 171.206s-.132-1.054-2-2.792c-1.867-1.737-5.343-3.98-5.118-3.002 0 0 .985 1.309.85 4.579 0 0 .015.491.759.635.743.144 5.596 1.295 5.509.58Z" style="mix-blend-mode:screen"/>
            <path fill="#C2BFC0" d="M41.14 175.469c7.892.874 13.44-1.027 15.764-2.613.412-.256.819-.623.97-1.13.014-.049.03-.099.039-.149a.793.793 0 0 0 .02-.154.26.26 0 0 0 0-.063c-.153.306-.885 1.429-3.498 1.884-3.035.524-4.22.378-4.22.378s-.78-.172-.502-.769c.284-.596.661-2.622.86-3.623l-3.825.86s-.745 2.301-3.301 2.924c-2.555.617-32.236-5.671-32.236-5.671s-1.687-.452-1.63-2.672c.058-2.22.909-7.881 4.033-8.43 1.261-.223 2.73-.164 4.028-.012-2.755-.513-4.546-.834-4.546-.834s-1.305-.116-2.572 2.599c-.456.971-.904 2.307-1.286 4.144-.33 1.841-.409 3.248-.354 4.319.16 2.991 1.415 3.371 1.415 3.371s22.806 4.74 30.852 5.633l-.012.008Z" style="mix-blend-mode:multiply"/>
            <path fill="#303134" d="M46.553 174.566c1.013-.056 1.83-.648 2.473-1.389.378-.431.67-.941.888-1.466a9.171 9.171 0 0 0 .678-3.795s-.096-2.7-2.044-3.618c-1.949-.914-4.945-1.867-4.963-1.582-.014.286 1.432.462 2.002 1.176.85 1.062 1.483 2.261 1.489 3.668.01 1.414-.298 3.055-1.077 4.253-.484.741-1.164 1.349-1.924 1.806-.137.083-.28.145-.416.223-.796.45-2.203.072-2.297.342-.095.271 3.04.506 5.194.388l-.003-.006Z" style="mix-blend-mode:multiply"/>
            <path fill="#303134" d="M46.553 174.566c1.013-.056 1.83-.648 2.473-1.389.378-.431.67-.941.888-1.466.13-.321.24-.641.334-.964-.288-.03-2.54.001-2.525-1.46.008-.587.044-1.152-.043-1.73-.32-2.172-1.698-4.345-3.973-4.686.362.217 1.41.441 1.88 1.026.849 1.062 1.482 2.261 1.488 3.668.01 1.414-.298 3.055-1.077 4.253-.484.741-1.164 1.349-1.924 1.806-.137.083-.28.145-.416.223-.796.45-2.203.072-2.297.343-.094.27 3.04.505 5.195.387l-.003-.011Z" style="mix-blend-mode:multiply"/>
            <path fill="#A9ABAE" d="M49.696 165.984c.315.487.483 1.081.567 1.68.113.715.087 1.418.042 2.139.448-2.475-.14-3.638-.745-4.47-.357-.489-.854-.821-1.24-1.027.566.44 1.032 1.04 1.37 1.677l.006.001Z" style="mix-blend-mode:screen"/>
            <path fill="url(#t)" d="M23.545 157.352a755.964 755.964 0 0 0-5.139-.975c-1.178 2.233-3.49 7.664-2.65 14.566 1.516.305 3.264.654 5.131 1.016-.85-6.936 1.489-12.393 2.659-14.612l-.001.005Z"/>
            <path fill="#fff" d="M24.696 166.74c1.104.046 1.226-1.206 1.226-1.206l.058-.299s.36-1.205-.686-1.576c-1.042-.37-15.979-2.378-15.979-2.378s-.811-.309-1.207.485l-.058.299c.07.885.939.901.939.901s14.605 3.718 15.71 3.764l-.003.01Z"/>
            <path fill="#5A5B5D" d="M24.696 166.74c1.104.046 1.226-1.206 1.226-1.206l.058-.299s.36-1.205-.686-1.576c-1.042-.37-15.979-2.378-15.979-2.378s-.811-.309-1.207.485l-.058.299c.07.885.939.901.939.901s14.605 3.718 15.71 3.764l-.003.01Z"/>
            <path fill="#fff" d="M24.636 165.29c.815.131.803-.38.803-.38l.021-.106s.156-.427-.654-.61c-.804-.182-15.929-2.657-15.929-2.657s.69 1.289 15.76 3.748v.005Z"/>
            <path fill="#5A5B5D" d="M17.448 144.177a.24.24 0 0 1-.187-.278.24.24 0 0 1 .278-.187.237.237 0 1 1-.09.465Zm-.662 2.197a.24.24 0 0 1-.187-.278.24.24 0 0 1 .278-.188.24.24 0 0 1 .187.278.24.24 0 0 1-.277.188ZM16.042 148.319a.237.237 0 1 0 .466.089.237.237 0 0 0-.466-.089ZM15.623 150.804a.24.24 0 0 1-.187-.278.24.24 0 0 1 .278-.187.24.24 0 0 1 .187.278.24.24 0 0 1-.278.187Zm-.404 2.247a.24.24 0 0 1-.187-.278.24.24 0 0 1 .278-.187.239.239 0 0 1 .187.277.24.24 0 0 1-.278.188Zm-.668 2.201a.24.24 0 0 1-.187-.278.24.24 0 0 1 .278-.187.239.239 0 0 1 .187.277.24.24 0 0 1-.278.188ZM9.811 182.336a.238.238 0 1 0 .467.09.238.238 0 0 0-.467-.09ZM10.018 180.051a.237.237 0 1 0 .466.089.237.237 0 0 0-.466-.089ZM10.331 177.786a.237.237 0 1 0 .465.09.237.237 0 0 0-.465-.09ZM10.872 175.319a.24.24 0 0 0-.278.188.239.239 0 0 0 .188.277.24.24 0 0 0 .278-.187.24.24 0 0 0-.188-.278Zm.465-2.235a.24.24 0 0 0-.278.187.24.24 0 0 0 .188.278.24.24 0 0 0 .277-.187.24.24 0 0 0-.187-.278Zm.201-2.286a.236.236 0 0 0-.277.187.236.236 0 0 0 .187.278.24.24 0 0 0 .278-.187.24.24 0 0 0-.188-.278Z"/>
        </g>
    </g>
    <defs>
        <linearGradient id="c" x1="6.629" x2="1.795" y1="175.111" y2="174.762" gradientUnits="userSpaceOnUse">
            <stop offset=".46" stop-color="#E5E0DF"/>
            <stop offset="1" stop-color="#8CA99C"/>
        </linearGradient>
        <linearGradient id="d" x1="6.12" x2="1.285" y1="177.741" y2="177.392" gradientUnits="userSpaceOnUse">
            <stop offset=".46" stop-color="#E5E0DF"/>
            <stop offset="1" stop-color="#8CA99C"/>
        </linearGradient>
        <linearGradient id="e" x1="12.276" x2="7.441" y1="145.977" y2="145.628" gradientUnits="userSpaceOnUse">
            <stop offset=".46" stop-color="#E5E0DF"/>
            <stop offset="1" stop-color="#8CA99C"/>
        </linearGradient>
        <linearGradient id="f" x1="11.766" x2="6.931" y1="148.608" y2="148.259" gradientUnits="userSpaceOnUse">
            <stop offset=".46" stop-color="#E5E0DF"/>
            <stop offset="1" stop-color="#8CA99C"/>
        </linearGradient>
        <linearGradient id="g" x1="75.831" x2="43.339" y1="175.049" y2="168.752" gradientUnits="userSpaceOnUse">
            <stop offset=".69" stop-color="#E5E0DF"/>
            <stop offset="1" stop-color="#727876"/>
        </linearGradient>
        <linearGradient id="h" x1="38.346" x2="35.783" y1="164.855" y2="178.079" gradientUnits="userSpaceOnUse">
            <stop offset=".69" stop-color="#E5E0DF"/>
            <stop offset="1" stop-color="#727876"/>
        </linearGradient>
        <linearGradient id="i" x1="13.726" x2="1.142" y1="165.931" y2="165.019" gradientUnits="userSpaceOnUse">
            <stop offset=".46" stop-color="#E5E0DF"/>
            <stop offset="1" stop-color="#8CA99C"/>
        </linearGradient>
        <linearGradient id="j" x1="13.687" x2="1.103" y1="166.485" y2="165.573" gradientUnits="userSpaceOnUse">
            <stop offset=".46" stop-color="#E5E0DF"/>
            <stop offset="1" stop-color="#8CA99C"/>
        </linearGradient>
        <linearGradient id="k" x1="15.23" x2="2.646" y1="158.171" y2="157.264" gradientUnits="userSpaceOnUse">
            <stop offset=".46" stop-color="#E5E0DF"/>
            <stop offset="1" stop-color="#8CA99C"/>
        </linearGradient>
        <linearGradient id="l" x1="15.191" x2="2.606" y1="158.725" y2="157.818" gradientUnits="userSpaceOnUse">
            <stop offset=".46" stop-color="#E5E0DF"/>
            <stop offset="1" stop-color="#8CA99C"/>
        </linearGradient>
        <linearGradient id="m" x1="55.549" x2="17.996" y1="141.904" y2="157.925" gradientUnits="userSpaceOnUse">
            <stop offset=".46" stop-color="#E5E0DF"/>
            <stop offset="1" stop-color="#454949"/>
        </linearGradient>
        <linearGradient id="n" x1="33.887" x2="21.436" y1="149.84" y2="167.473" gradientUnits="userSpaceOnUse">
            <stop offset=".46" stop-color="#E5E0DF"/>
            <stop offset="1" stop-color="#454949"/>
        </linearGradient>
        <linearGradient id="o" x1="44.634" x2="15.785" y1="198.223" y2="169.332" gradientUnits="userSpaceOnUse">
            <stop offset=".46" stop-color="#E5E0DF"/>
            <stop offset="1" stop-color="#454949"/>
        </linearGradient>
        <linearGradient id="p" x1="27.505" x2="22.544" y1="182.768" y2="161.761" gradientUnits="userSpaceOnUse">
            <stop offset=".46" stop-color="#E5E0DF"/>
            <stop offset="1" stop-color="#454949"/>
        </linearGradient>
        <linearGradient id="q" x1="35.192" x2="31.59" y1="158.491" y2="177.072" gradientUnits="userSpaceOnUse">
            <stop offset=".69" stop-color="#E5E0DF"/>
            <stop offset="1" stop-color="#B2B8B4"/>
        </linearGradient>
        <linearGradient id="r" x1="32.482" x2="21.491" y1="157.389" y2="172.958" gradientUnits="userSpaceOnUse">
            <stop offset=".46" stop-color="#E5E0DF"/>
            <stop offset="1" stop-color="#454949"/>
        </linearGradient>
        <linearGradient id="s" x1="54.336" x2="51.791" y1="167.771" y2="171.372" gradientUnits="userSpaceOnUse">
            <stop offset=".46" stop-color="#E5E0DF"/>
            <stop offset="1" stop-color="#454949"/>
        </linearGradient>
        <linearGradient id="t" x1="21.593" x2="17.946" y1="151.42" y2="170.234" gradientUnits="userSpaceOnUse">
            <stop offset=".46" stop-color="#E5E0DF"/>
            <stop offset="1" stop-color="#454949"/>
        </linearGradient>
        <clipPath id="a">
            <path fill="#fff" d="M0 0h1440v320H0z"/>
        </clipPath>
        <clipPath id="b">
            <path fill="#fff" d="m90.52 153.799-9.003 46.454L0 184.454l9.004-46.455z"/>
        </clipPath>
    </defs>
</svg>
