<svg width="1440" height="320" viewBox="0 0 1440 320" fill="none" xmlns="http://www.w3.org/2000/svg">
<g clip-path="url(#clip0_1_4)">
<path d="M0 160L80 176C160 192 320 224 480 197.3C640 171 800 85 960 64C1120 43 1280 85 1360 106.7L1440 128V320H0V160Z" fill="#F0F0F0"/>
<g clip-path="url(#clip1_1_4)">
<path d="M12.2331 174.932L13.6485 173.506L27.8788 176.264L28.2947 178.045L12.2331 174.932Z" fill="#939698"/>
<path d="M28.0471 176.858L13.2148 173.983L12.2331 174.932L28.2947 178.045L28.0471 176.858Z" fill="#575A5B"/>
<path d="M11.0467 181.053L11.3956 182.286L18.7359 183.709L19.333 182.659L11.0467 181.053Z" fill="#939698"/>
<path d="M18.9491 183.367L11.2952 181.883L11.0467 181.053L19.333 182.659L18.9491 183.367Z" fill="#575A5B"/>
<path d="M20.6521 183.219L20.7493 184.099L24.0527 184.739L24.3804 183.942L20.6521 183.219Z" fill="#939698"/>
<path d="M24.1663 184.478L20.7263 183.811L20.6521 183.219L24.3804 183.942L24.1663 184.478Z" fill="#575A5B"/>
<path d="M5.71947 175.554L5.87634 174.744C5.87634 174.744 4.9095 173.775 3.21708 173.489C3.21708 173.489 2.94167 173.908 2.81828 174.572C2.67875 175.237 2.78372 175.725 2.78372 175.725C4.46045 176.092 5.71947 175.554 5.71947 175.554Z" fill="#626467"/>
<path d="M4.86786 175.777C5.39484 175.685 5.71441 175.553 5.71441 175.553L5.87129 174.743C5.87129 174.743 5.62019 174.495 5.15059 174.21C5.01816 174.541 4.87277 175.075 4.86688 175.782L4.86786 175.777Z" fill="url(#paint0_linear_1_4)"/>
<path d="M3.53579 173.551L3.39414 173.523C3.30222 173.7 3.15265 174.038 3.05754 174.529C2.99185 174.868 2.95389 175.28 2.97596 175.762L3.11254 175.789C3.04773 174.579 3.39783 173.802 3.53579 173.551ZM3.96496 173.665C3.91943 173.657 3.87587 173.638 3.83132 173.624C3.73841 173.805 3.59585 174.134 3.50369 174.61C3.43898 174.944 3.39694 175.35 3.42097 175.822C3.4665 175.831 3.51399 175.83 3.55544 175.832C3.50416 174.689 3.81801 173.936 3.96594 173.66L3.96496 173.665ZM4.29324 175.844C4.34073 175.843 4.38316 175.841 4.42657 175.833C4.41325 174.954 4.61871 174.327 4.7673 173.994C4.7288 173.976 4.68621 173.952 4.64264 173.933C4.5579 174.127 4.45044 174.41 4.37788 174.785C4.32004 175.083 4.28274 175.438 4.28818 175.843L4.29324 175.844ZM4.37209 173.813C4.32852 173.794 4.28904 173.781 4.24547 173.762C4.15158 173.948 4.02715 174.265 3.94381 174.695C3.88204 175.014 3.84391 175.4 3.85669 175.849C3.90418 175.848 3.94563 175.85 3.99312 175.849C3.95667 174.818 4.22334 174.12 4.37209 173.813ZM4.73257 175.798C4.78104 175.792 4.82445 175.785 4.86786 175.777C4.87375 175.07 5.0242 174.537 5.15157 174.205C5.11404 174.182 5.07146 174.158 5.02887 174.134C4.9562 174.319 4.8778 174.561 4.81898 174.865C4.76799 175.128 4.73347 175.441 4.73355 175.793L4.73257 175.798Z" fill="#3A3C3F"/>
<g style="mix-blend-mode:multiply" opacity="0.6">
<path d="M5.71947 175.554L5.87634 174.744C5.87634 174.744 4.9095 173.775 3.21708 173.489C3.21708 173.489 3.19504 173.521 3.16402 173.573C3.55747 173.628 3.93848 173.802 4.30514 173.941C4.55024 174.031 5.12365 174.268 5.0258 174.637C4.91505 175.046 3.22283 174.624 2.82024 174.561L2.8173 174.577C2.67776 175.242 2.78274 175.73 2.78274 175.73C4.45947 176.097 5.71849 175.559 5.71849 175.559L5.71947 175.554Z" fill="#B3B5B8"/>
</g>
<g style="mix-blend-mode:multiply" opacity="0.6">
<path d="M5.71947 175.554L5.79987 175.139C4.82112 175.395 3.75269 175.356 2.74729 175.209C2.74313 175.528 2.78372 175.725 2.78372 175.725C4.46045 176.092 5.71947 175.554 5.71947 175.554Z" fill="#B3B5B8"/>
</g>
<path d="M5.20964 178.184L5.36651 177.375C5.36651 177.375 4.39967 176.406 2.70726 176.12C2.70726 176.12 2.43184 176.539 2.30846 177.202C2.1699 177.863 2.27389 178.355 2.27389 178.355C3.95062 178.722 5.20964 178.184 5.20964 178.184Z" fill="#626467"/>
<path d="M4.35803 178.408C4.88501 178.316 5.20459 178.183 5.20459 178.183L5.36146 177.374C5.36146 177.374 5.11135 177.121 4.64077 176.841C4.50833 177.172 4.36393 177.7 4.35705 178.413L4.35803 178.408Z" fill="url(#paint1_linear_1_4)"/>
<path d="M3.02597 176.181L2.88431 176.154C2.79239 176.33 2.64282 176.669 2.54772 177.159C2.48202 177.498 2.44406 177.911 2.46515 178.398L2.60173 178.424C2.53693 177.215 2.88702 176.438 3.02498 176.186L3.02597 176.181ZM3.45513 176.296L3.32149 176.254C3.22859 176.436 3.08603 176.765 2.99386 177.241C2.92915 177.574 2.88711 177.981 2.91114 178.453C2.95667 178.462 3.00416 178.46 3.04561 178.463C2.99433 177.319 3.30819 176.567 3.45611 176.291L3.45513 176.296ZM3.78341 178.475C3.8309 178.474 3.87333 178.471 3.91674 178.464C3.90441 177.58 4.10889 176.958 4.25748 176.625C4.21897 176.607 4.17638 176.583 4.13282 176.564C4.04807 176.757 3.94061 177.041 3.86806 177.415C3.81021 177.714 3.77291 178.069 3.77836 178.474L3.78341 178.475ZM3.86226 176.443C3.8187 176.424 3.77921 176.411 3.73564 176.392C3.64176 176.579 3.51732 176.896 3.43398 177.326C3.37221 177.645 3.33409 178.031 3.34686 178.479C3.39435 178.478 3.4358 178.481 3.48329 178.48C3.44684 177.449 3.71351 176.75 3.86226 176.443ZM4.22274 178.429C4.27121 178.422 4.31462 178.415 4.35803 178.408C4.36393 177.7 4.51437 177.168 4.64175 176.836C4.60422 176.813 4.56163 176.789 4.51904 176.765C4.44638 176.95 4.36798 177.192 4.30915 177.495C4.25718 177.764 4.22365 178.072 4.22372 178.424L4.22274 178.429Z" fill="#3A3C3F"/>
<g style="mix-blend-mode:multiply" opacity="0.6">
<path d="M5.20964 178.184L5.36651 177.375C5.36651 177.375 4.39967 176.406 2.70726 176.12C2.70726 176.12 2.68521 176.152 2.65419 176.204C3.04764 176.259 3.42865 176.433 3.79532 176.572C4.04041 176.661 4.61382 176.898 4.51597 177.268C4.40522 177.677 2.713 177.254 2.31042 177.192L2.30748 177.207C2.16892 177.868 2.27291 178.361 2.27291 178.361C3.94964 178.728 5.20866 178.189 5.20866 178.189L5.20964 178.184Z" fill="#B3B5B8"/>
</g>
<g style="mix-blend-mode:multiply" opacity="0.6">
<path d="M5.20964 178.184L5.29004 177.77C4.3113 178.026 3.24287 177.987 2.23746 177.839C2.2333 178.159 2.27389 178.355 2.27389 178.355C3.95062 178.722 5.20964 178.184 5.20964 178.184Z" fill="#B3B5B8"/>
</g>
<path d="M8.85197 177.536L8.90762 177.547L8.92041 177.318L8.9939 177.102L8.93825 177.091L9.18462 173.491L4.9012 173.737L3.85406 179.139L7.73549 180.968L8.85197 177.536Z" fill="#9D9FA1"/>
<g style="mix-blend-mode:multiply" opacity="0.5">
<path d="M8.47583 178.691C7.33227 178.255 6.20962 177.764 5.04908 177.361C4.78375 177.267 4.51548 177.189 4.24819 177.106L3.85502 179.134L7.73548 180.968L8.47076 178.69L8.47583 178.691ZM9.16542 173.833L9.18967 173.492L4.90624 173.738L4.82976 174.132C6.27619 174.008 7.71771 173.91 9.16542 173.833Z" fill="#9D9FA1"/>
</g>
<path d="M49.3008 181.266L47.8506 188.748L7.73959 180.974L9.18969 173.492L49.3008 181.266Z" fill="#C2C4C6"/>
<path d="M10.7326 173.791L9.28249 181.273L7.73957 180.974L9.18968 173.492L10.7326 173.791ZM41.0701 179.671L39.62 187.153L38.9927 187.031L40.4428 179.549L41.0701 179.671ZM39.7396 179.413L38.2895 186.895L37.6622 186.773L39.1124 179.291L39.7396 179.413Z" fill="#3E4042"/>
<path d="M57.4907 187.241C57.8255 187.112 57.8869 186.903 57.8935 186.815C57.9152 186.73 57.9361 186.514 57.679 186.27C57.3416 185.953 51.5378 181.883 49.234 181.258L47.7839 188.74C50.1483 189.025 57.0582 187.415 57.4898 187.246L57.4907 187.241Z" fill="#76797B"/>
<path opacity="0.4" d="M57.4456 186.445C57.4456 186.445 52.7709 183.266 49.9932 181.972C49.9932 181.972 49.409 181.628 49.3147 182.25L48.7735 185.043C48.7735 185.043 48.4496 185.982 49.3153 186.092C50.181 186.202 57.4456 186.445 57.4456 186.445ZM48.1233 185.499L48.7567 182.231C48.7567 182.231 49.0105 181.735 47.4706 181.447L12.5752 174.683C12.5752 174.683 11.3113 174.407 10.7901 174.957L10.0485 177.7C10.0485 177.7 9.89159 178.509 11.4193 178.805L46.9724 185.696C46.9724 185.696 48.0449 185.904 48.1183 185.498L48.1233 185.499Z" fill="white"/>
<path d="M5.12855 174.243C5.04761 174.227 4.9946 174.148 5.01028 174.067C5.02597 173.986 5.10546 173.928 5.1864 173.944C5.26734 173.96 5.32035 174.038 5.30369 174.124C5.28702 174.21 5.20949 174.258 5.12855 174.243Z" fill="#C2C4C6"/>
<path d="M4.82401 175.029C4.8083 175.11 4.86125 175.188 4.94228 175.204C5.0233 175.219 5.10171 175.166 5.11741 175.085C5.13311 175.004 5.08017 174.926 4.99914 174.91C4.91812 174.895 4.83971 174.948 4.82401 175.029Z" fill="#C2C4C6"/>
<path d="M4.63773 175.99C4.62202 176.071 4.67497 176.149 4.756 176.165C4.83702 176.181 4.91543 176.128 4.93113 176.047C4.94683 175.966 4.89389 175.887 4.81286 175.871C4.73184 175.856 4.65343 175.909 4.63773 175.99Z" fill="#C2C4C6"/>
<path d="M4.45142 176.951C4.43572 177.032 4.48866 177.11 4.56969 177.126C4.65071 177.142 4.72912 177.089 4.74482 177.008C4.76052 176.927 4.70758 176.848 4.62655 176.833C4.54553 176.817 4.46712 176.87 4.45142 176.951Z" fill="#C2C4C6"/>
<path d="M4.26416 177.917C4.24846 177.998 4.30141 178.077 4.38243 178.092C4.46345 178.108 4.54186 178.055 4.55756 177.974C4.57327 177.893 4.52032 177.815 4.4393 177.799C4.35827 177.783 4.27987 177.836 4.26416 177.917Z" fill="#C2C4C6"/>
<path d="M4.19517 179.059C4.11423 179.043 4.06122 178.964 4.0769 178.883C4.09259 178.802 4.17208 178.744 4.25302 178.76C4.33396 178.776 4.38697 178.854 4.37031 178.94C4.35364 179.026 4.27611 179.074 4.19517 179.059Z" fill="#C2C4C6"/>
<path d="M25.2796 182.038L24.9482 183.747L23.9263 183.549L24.2577 181.839L25.2796 182.038ZM24.0301 181.795L23.6987 183.505L23.1675 183.402L23.4989 181.692L24.0301 181.795ZM18.6121 180.745L18.2807 182.455L17.704 182.343L18.0354 180.633L18.6121 180.745ZM17.8027 180.588L17.4713 182.298L14.8964 181.799L15.2278 180.089L17.8027 180.588ZM14.9951 180.044L14.6637 181.754L13.0398 181.439L13.3712 179.729L14.9951 180.044ZM11.0493 179.279L10.7179 180.989L10.0501 180.86L10.3815 179.15L11.0493 179.279Z" fill="#3A3C3F"/>
<path d="M46.5501 181.132C46.4995 181.122 46.4619 181.073 46.4717 181.022C46.4815 180.971 46.5308 180.934 46.5864 180.945C46.642 180.955 46.6696 181.003 46.6588 181.058C46.648 181.114 46.6007 181.141 46.5501 181.132ZM46.3276 182.28C46.277 182.27 46.2393 182.221 46.2501 182.165C46.2609 182.11 46.3082 182.082 46.3638 182.093C46.4195 182.104 46.4471 182.151 46.4372 182.202C46.4274 182.252 46.3781 182.29 46.3276 182.28ZM46.105 183.428C46.0544 183.419 46.0167 183.369 46.0275 183.314C46.0383 183.258 46.0866 183.225 46.1423 183.236C46.1979 183.247 46.2255 183.294 46.2147 183.35C46.2039 183.406 46.1556 183.438 46.105 183.428ZM45.8814 184.582C45.8309 184.572 45.7932 184.523 45.803 184.472C45.8128 184.421 45.8621 184.384 45.9177 184.395C45.9734 184.405 46.0009 184.453 45.9902 184.508C45.9794 184.564 45.932 184.592 45.8814 184.582ZM45.6589 185.73C45.6083 185.72 45.5706 185.671 45.5804 185.62C45.5902 185.57 45.6395 185.532 45.6952 185.543C45.7508 185.554 45.7784 185.601 45.7676 185.657C45.7568 185.712 45.7095 185.74 45.6589 185.73ZM45.4363 186.878C45.3857 186.869 45.348 186.819 45.3588 186.764C45.3696 186.708 45.4169 186.68 45.4726 186.691C45.5282 186.702 45.5558 186.749 45.546 186.8C45.5362 186.851 45.4869 186.888 45.4363 186.878ZM45.2137 188.027C45.1632 188.017 45.1255 187.968 45.1363 187.912C45.147 187.856 45.1944 187.829 45.25 187.84C45.3057 187.85 45.3332 187.898 45.3234 187.948C45.3136 187.999 45.2643 188.037 45.2137 188.027ZM26.6843 177.281C26.6337 177.272 26.6011 177.223 26.6109 177.173C26.6207 177.122 26.67 177.084 26.7206 177.094C26.7712 177.104 26.8038 177.152 26.793 177.208C26.7822 177.264 26.7349 177.291 26.6843 177.281ZM26.4617 178.43C26.4111 178.42 26.3785 178.372 26.3893 178.316C26.4001 178.26 26.4474 178.233 26.498 178.243C26.5486 178.252 26.5812 178.301 26.5714 178.351C26.5616 178.402 26.5123 178.44 26.4617 178.43ZM26.2392 179.578C26.1886 179.568 26.156 179.52 26.1667 179.464C26.1775 179.409 26.2258 179.376 26.2764 179.386C26.327 179.396 26.3596 179.444 26.3489 179.5C26.3381 179.555 26.2898 179.588 26.2392 179.578ZM26.0156 180.731C25.965 180.722 25.9324 180.673 25.9422 180.623C25.952 180.572 26.0013 180.535 26.0519 180.544C26.1025 180.554 26.1351 180.602 26.1243 180.658C26.1135 180.714 26.0662 180.741 26.0156 180.731ZM25.7931 181.88C25.7425 181.87 25.7098 181.822 25.7196 181.771C25.7295 181.721 25.7787 181.683 25.8293 181.693C25.8799 181.702 25.9125 181.751 25.9018 181.806C25.891 181.862 25.8436 181.89 25.7931 181.88ZM25.5705 183.028C25.5199 183.018 25.4873 182.97 25.4981 182.914C25.5088 182.859 25.5562 182.831 25.6068 182.841C25.6574 182.851 25.69 182.899 25.6802 182.95C25.6704 183 25.6211 183.038 25.5705 183.028ZM25.3479 184.177C25.2973 184.167 25.2647 184.118 25.2755 184.063C25.2863 184.007 25.3336 183.98 25.3842 183.989C25.4348 183.999 25.4674 184.047 25.4576 184.098C25.4478 184.149 25.3985 184.186 25.3479 184.177Z" fill="#61626B"/>
<path d="M17.8796 145.798L19.295 144.372L33.5253 147.13L33.9412 148.911L17.8796 145.798Z" fill="#939698"/>
<path d="M33.6936 147.724L18.8612 144.85L17.8795 145.798L33.9412 148.911L33.6936 147.724Z" fill="#575A5B"/>
<path d="M16.6932 151.92L17.0421 153.152L24.3824 154.575L24.9795 153.526L16.6932 151.92Z" fill="#939698"/>
<path d="M24.5956 154.233L16.9417 152.75L16.6932 151.92L24.9795 153.526L24.5956 154.233Z" fill="#575A5B"/>
<path d="M26.2976 154.091L26.3958 154.965L29.6992 155.606L30.0259 154.813L26.2976 154.091Z" fill="#939698"/>
<path d="M29.8128 155.344L26.3729 154.677L26.2976 154.091L30.0259 154.813L29.8128 155.344Z" fill="#575A5B"/>
<path d="M11.366 146.42L11.5229 145.611C11.5229 145.611 10.556 144.641 8.8636 144.355C8.8636 144.355 8.58818 144.774 8.4648 145.438C8.32526 146.104 8.43023 146.591 8.43023 146.591C10.107 146.958 11.366 146.42 11.366 146.42Z" fill="#626467"/>
<path d="M10.5144 146.644C11.0414 146.552 11.3609 146.419 11.3609 146.419L11.5178 145.61C11.5178 145.61 11.2677 145.357 10.7971 145.077C10.6647 145.408 10.5193 145.941 10.5134 146.649L10.5144 146.644Z" fill="url(#paint2_linear_1_4)"/>
<path d="M9.18231 144.417L9.04065 144.39C8.94873 144.566 8.79916 144.905 8.70406 145.395C8.63837 145.734 8.6004 146.147 8.62149 146.634L8.75807 146.66C8.69425 145.446 9.04336 144.674 9.18133 144.422L9.18231 144.417ZM9.61147 144.532C9.56594 144.523 9.52238 144.504 9.47783 144.49C9.38493 144.672 9.24237 145.001 9.15021 145.476C9.08549 145.81 9.04345 146.217 9.06749 146.689C9.11301 146.697 9.1605 146.696 9.20195 146.699C9.15166 145.55 9.46453 144.803 9.61245 144.527L9.61147 144.532ZM9.93975 146.711C9.98724 146.709 10.0297 146.707 10.0731 146.7C10.0598 145.821 10.2652 145.194 10.4138 144.861C10.3753 144.843 10.3327 144.819 10.2892 144.8C10.2044 144.993 10.097 145.277 10.0244 145.651C9.96655 145.95 9.92925 146.305 9.9347 146.71L9.93975 146.711ZM10.0176 144.684C9.97406 144.665 9.93457 144.652 9.891 144.633C9.79712 144.82 9.67268 145.137 9.58934 145.567C9.52757 145.886 9.48945 146.272 9.50223 146.72C9.54972 146.719 9.59116 146.722 9.63865 146.721C9.6022 145.69 9.86888 144.991 10.0176 144.684ZM10.3791 146.665C10.4276 146.658 10.471 146.651 10.5144 146.644C10.5203 145.936 10.6707 145.404 10.7981 145.072C10.7606 145.048 10.718 145.024 10.6754 145C10.6027 145.186 10.5243 145.428 10.4655 145.731C10.4145 145.994 10.38 146.308 10.3801 146.66L10.3791 146.665Z" fill="#3A3C3F"/>
<g style="mix-blend-mode:multiply" opacity="0.6">
<path d="M11.366 146.42L11.5229 145.611C11.5229 145.611 10.556 144.641 8.8636 144.355C8.8636 144.355 8.84155 144.388 8.81053 144.44C9.20398 144.495 9.585 144.668 9.95166 144.808C10.1968 144.897 10.7702 145.134 10.6723 145.504C10.5616 145.913 8.86836 145.495 8.46676 145.428L8.46382 145.443C8.32428 146.109 8.42925 146.596 8.42925 146.596C10.106 146.963 11.365 146.425 11.365 146.425L11.366 146.42Z" fill="#B3B5B8"/>
</g>
<g style="mix-blend-mode:multiply" opacity="0.6">
<path d="M11.366 146.42L11.4464 146.005C10.4686 146.257 9.39921 146.223 8.3938 146.075C8.38964 146.395 8.43023 146.591 8.43023 146.591C10.107 146.958 11.366 146.42 11.366 146.42Z" fill="#B3B5B8"/>
</g>
<path d="M10.8561 149.051L11.013 148.241C11.013 148.241 10.0462 147.272 8.35374 146.986C8.35374 146.986 8.07832 147.405 7.95494 148.069C7.81638 148.729 7.92038 149.222 7.92038 149.222C9.59711 149.589 10.8561 149.051 10.8561 149.051Z" fill="#626467"/>
<path d="M10.0045 149.274C10.5305 149.187 10.8511 149.05 10.8511 149.05L11.0079 148.24C11.0079 148.24 10.7578 147.987 10.2872 147.707C10.1548 148.038 10.0094 148.572 10.0035 149.279L10.0045 149.274Z" fill="url(#paint3_linear_1_4)"/>
<path d="M8.67245 147.048L8.5308 147.02C8.43887 147.197 8.28931 147.535 8.1942 148.026C8.12851 148.365 8.09054 148.777 8.11163 149.264L8.24822 149.291C8.18439 148.076 8.53351 147.304 8.67147 147.053L8.67245 147.048ZM9.10161 147.162C9.05609 147.154 9.01252 147.135 8.96797 147.121C8.87507 147.302 8.73251 147.632 8.64035 148.107C8.57564 148.441 8.5336 148.847 8.55763 149.319C8.60316 149.328 8.65064 149.327 8.6921 149.33C8.64082 148.186 8.95467 147.433 9.1026 147.157L9.10161 147.162ZM9.4299 149.341C9.47739 149.34 9.51982 149.338 9.56323 149.33C9.55089 148.446 9.75537 147.825 9.90396 147.491C9.86545 147.473 9.82287 147.449 9.7793 147.43C9.69455 147.624 9.5871 147.907 9.51454 148.282C9.45669 148.58 9.4194 148.935 9.42484 149.34L9.4299 149.341ZM9.50875 147.31C9.46518 147.291 9.42569 147.278 9.38213 147.259C9.28824 147.445 9.16381 147.762 9.08047 148.192C9.0187 148.511 8.98057 148.897 8.99335 149.346C9.03986 149.35 9.08229 149.347 9.12978 149.346C9.09332 148.316 9.36 147.617 9.50875 147.31ZM9.86922 149.295C9.91769 149.289 9.96111 149.282 10.0045 149.274C10.0104 148.567 10.1609 148.034 10.2882 147.702C10.2507 147.679 10.2081 147.655 10.1655 147.631C10.0929 147.816 10.0135 148.064 9.95563 148.362C9.90367 148.63 9.87013 148.939 9.8702 149.29L9.86922 149.295Z" fill="#3A3C3F"/>
<g style="mix-blend-mode:multiply" opacity="0.6">
<path d="M10.8561 149.051L11.013 148.241C11.013 148.241 10.0462 147.272 8.35374 146.986C8.35374 146.986 8.3317 147.018 8.30068 147.07C8.69511 147.12 9.07514 147.299 9.4418 147.438C9.6869 147.528 10.2603 147.765 10.1625 148.134C10.0517 148.543 8.35949 148.121 7.9569 148.059L7.95396 148.074C7.8154 148.734 7.91939 149.227 7.91939 149.227C9.59612 149.594 10.8551 149.056 10.8551 149.056L10.8561 149.051Z" fill="#B3B5B8"/>
</g>
<g style="mix-blend-mode:multiply" opacity="0.6">
<path d="M10.8561 149.051L10.9365 148.636C9.95778 148.893 8.88935 148.853 7.88395 148.706C7.87979 149.025 7.92038 149.222 7.92038 149.222C9.5971 149.589 10.8561 149.051 10.8561 149.051Z" fill="#B3B5B8"/>
</g>
<path d="M14.4975 148.408L14.5532 148.418L14.5669 148.185L14.6404 147.968L14.5848 147.957L14.8311 144.357L10.5467 144.608L9.50057 150.006L13.381 151.839L14.4975 148.408Z" fill="#9D9FA1"/>
<g style="mix-blend-mode:multiply" opacity="0.5">
<path d="M14.1214 149.563C12.9778 149.126 11.8552 148.636 10.6946 148.232C10.4293 148.139 10.162 148.056 9.89373 147.977L9.50056 150.006L13.381 151.839L14.1163 149.562L14.1214 149.563ZM14.811 144.705L14.8352 144.363L10.5508 144.614L10.4743 145.009C11.9207 144.885 13.3623 144.786 14.81 144.71L14.811 144.705Z" fill="#9D9FA1"/>
</g>
<path d="M54.9472 152.132L53.4981 159.609L13.3871 151.835L14.8362 144.358L54.9472 152.132Z" fill="#C2C4C6"/>
<path d="M16.3791 144.657L14.93 152.134L13.3871 151.835L14.8362 144.358L16.3791 144.657ZM46.7166 150.537L45.2675 158.014L44.6402 157.892L46.0893 150.416L46.7166 150.537ZM45.3862 150.279L43.937 157.756L43.3097 157.635L44.7589 150.158L45.3862 150.279Z" fill="#3E4042"/>
<path d="M63.1373 158.108C63.472 157.978 63.5334 157.77 63.54 157.682C63.5617 157.597 63.5826 157.38 63.3255 157.136C62.9881 156.819 57.1843 152.75 54.8805 152.125L53.4314 159.602C55.7958 159.887 62.7057 158.276 63.1373 158.108Z" fill="#76797B"/>
<path opacity="0.4" d="M63.0921 157.312C63.0921 157.312 58.4174 154.133 55.6397 152.839C55.6397 152.839 55.0555 152.495 54.9612 153.117L54.42 155.909C54.42 155.909 54.0961 156.849 54.9618 156.959C55.8276 157.069 63.0921 157.312 63.0921 157.312ZM53.7699 156.366L54.4032 153.098C54.4032 153.098 54.657 152.601 53.1171 152.313L18.2217 145.55C18.2217 145.55 16.9578 145.273 16.4366 145.823L15.695 148.566C15.695 148.566 15.5381 149.376 17.0659 149.672L52.619 156.562C52.619 156.562 53.6914 156.77 53.7648 156.365L53.7699 156.366Z" fill="white"/>
<path d="M10.6568 144.934C10.6411 145.015 10.694 145.093 10.7751 145.109C10.8561 145.125 10.9345 145.072 10.9502 144.991C10.9659 144.91 10.913 144.831 10.8319 144.816C10.7509 144.8 10.6725 144.853 10.6568 144.934Z" fill="#C2C4C6"/>
<path d="M10.5888 146.07C10.5078 146.055 10.4548 145.976 10.4705 145.895C10.4862 145.814 10.5657 145.756 10.6466 145.772C10.7276 145.787 10.7806 145.866 10.7639 145.952C10.7473 146.038 10.6697 146.086 10.5888 146.07ZM10.4015 147.036C10.3206 147.021 10.2676 146.942 10.2832 146.861C10.2989 146.78 10.3784 146.722 10.4594 146.738C10.5403 146.754 10.5933 146.832 10.5767 146.918C10.56 147.004 10.4825 147.052 10.4015 147.036Z" fill="#C2C4C6"/>
<path d="M10.097 147.822C10.0813 147.903 10.1342 147.982 10.2152 147.998C10.2962 148.013 10.3747 147.96 10.3904 147.879C10.4061 147.798 10.3531 147.72 10.2721 147.704C10.1911 147.688 10.1127 147.741 10.097 147.822Z" fill="#C2C4C6"/>
<path d="M9.91065 148.784C9.89494 148.865 9.94789 148.943 10.0289 148.959C10.1099 148.974 10.1883 148.922 10.204 148.841C10.2198 148.759 10.1668 148.681 10.0858 148.665C10.0048 148.65 9.92635 148.703 9.91065 148.784Z" fill="#C2C4C6"/>
<path d="M9.84165 149.925C9.76071 149.909 9.7077 149.831 9.72339 149.75C9.73907 149.669 9.81856 149.611 9.8995 149.627C9.98044 149.642 10.0335 149.721 10.0168 149.807C10.0001 149.893 9.9226 149.941 9.84165 149.925Z" fill="#C2C4C6"/>
<path d="M30.9261 152.904L30.5947 154.614L29.5728 154.416L29.9042 152.706L30.9261 152.904ZM29.6766 152.662L29.3452 154.372L28.814 154.269L29.1454 152.559L29.6766 152.662ZM24.2586 151.612L23.9272 153.322L23.3505 153.21L23.6819 151.5L24.2586 151.612ZM23.4492 151.455L23.1178 153.165L20.5429 152.666L20.8743 150.956L23.4492 151.455ZM20.6416 150.911L20.3102 152.621L18.6864 152.306L19.0178 150.596L20.6416 150.911ZM16.6958 150.146L16.3644 151.856L15.6966 151.726L16.028 150.017L16.6958 150.146Z" fill="#3A3C3F"/>
<path d="M52.1966 151.998C52.1461 151.988 52.1084 151.939 52.1182 151.888C52.128 151.838 52.1773 151.8 52.2329 151.811C52.2886 151.822 52.3161 151.869 52.3053 151.925C52.2946 151.98 52.2472 152.008 52.1966 151.998ZM51.9741 153.147C51.9235 153.137 51.8858 153.087 51.8966 153.032C51.9074 152.976 51.9547 152.949 52.0104 152.959C52.066 152.97 52.0936 153.017 52.0838 153.068C52.074 153.119 52.0247 153.156 51.9741 153.147ZM51.7505 154.3C51.6999 154.29 51.6623 154.241 51.673 154.185C51.6838 154.13 51.7321 154.097 51.7878 154.108C51.8434 154.118 51.871 154.166 51.8602 154.221C51.8494 154.277 51.8011 154.31 51.7505 154.3ZM51.528 155.448C51.4774 155.438 51.4397 155.389 51.4505 155.334C51.4613 155.278 51.5096 155.245 51.5652 155.256C51.6209 155.267 51.6484 155.314 51.6376 155.37C51.6269 155.425 51.5785 155.458 51.528 155.448ZM51.3054 156.597C51.2548 156.587 51.2171 156.538 51.2269 156.487C51.2367 156.436 51.285 156.404 51.3407 156.414C51.3963 156.425 51.4239 156.473 51.4141 156.523C51.4043 156.574 51.356 156.606 51.3054 156.597ZM51.0828 157.745C51.0322 157.735 50.9946 157.686 51.0053 157.63C51.0161 157.575 51.0635 157.547 51.1191 157.558C51.1748 157.569 51.2023 157.616 51.1925 157.666C51.1827 157.717 51.1334 157.755 51.0828 157.745ZM50.8593 158.898C50.8087 158.889 50.771 158.839 50.7818 158.784C50.7926 158.728 50.8409 158.695 50.8965 158.706C50.9522 158.717 50.9798 158.764 50.969 158.82C50.9582 158.876 50.9099 158.908 50.8593 158.898ZM32.3308 148.148C32.2802 148.138 32.2476 148.09 32.2574 148.039C32.2672 147.989 32.3165 147.951 32.3671 147.961C32.4177 147.971 32.4503 148.019 32.4395 148.074C32.4287 148.13 32.3814 148.158 32.3308 148.148ZM32.1082 149.296C32.0577 149.286 32.025 149.238 32.0358 149.182C32.0466 149.127 32.0939 149.099 32.1445 149.109C32.1951 149.119 32.2277 149.167 32.2179 149.218C32.2081 149.268 32.1588 149.306 32.1082 149.296ZM31.8847 150.45C31.8341 150.44 31.8015 150.392 31.8123 150.336C31.8231 150.28 31.8714 150.248 31.922 150.257C31.9725 150.267 32.0052 150.316 31.9944 150.371C31.9836 150.427 31.9353 150.459 31.8847 150.45ZM31.6621 151.598C31.6115 151.588 31.5789 151.54 31.5897 151.484C31.6005 151.429 31.6488 151.396 31.6994 151.406C31.75 151.416 31.7826 151.464 31.7718 151.52C31.761 151.575 31.7127 151.608 31.6621 151.598ZM31.4396 152.746C31.389 152.737 31.3564 152.688 31.3662 152.638C31.376 152.587 31.4243 152.554 31.4749 152.564C31.5255 152.574 31.5581 152.622 31.5483 152.673C31.5385 152.723 31.4902 152.756 31.4396 152.746ZM31.217 153.895C31.1664 153.885 31.1338 153.837 31.1446 153.781C31.1554 153.725 31.2027 153.698 31.2533 153.707C31.3039 153.717 31.3365 153.766 31.3267 153.816C31.3169 153.867 31.2676 153.904 31.217 153.895ZM30.9935 155.048C30.9429 155.038 30.9102 154.99 30.921 154.934C30.9318 154.879 30.9801 154.846 31.0307 154.856C31.0813 154.866 31.1139 154.914 31.1031 154.97C31.0924 155.025 31.044 155.058 30.9935 155.048Z" fill="#61626B"/>
<path d="M64.0873 162.874L60.389 181.956L11.5111 172.483L15.2094 153.401L64.0873 162.874Z" fill="url(#paint4_linear_1_4)"/>
<path style="mix-blend-mode:multiply" d="M62.1117 173.068L60.388 181.961L11.5101 172.488L13.2337 163.594L62.1117 173.068Z" fill="url(#paint5_linear_1_4)"/>
<path d="M60.9913 162.274L57.293 181.356L55.8766 181.081L59.5749 161.999L60.9913 162.274Z" fill="#3E4042"/>
<path d="M84.9831 178.12C85.83 177.785 85.9915 177.25 86.0195 177.024C86.0778 176.804 86.1321 176.253 85.4664 175.626C84.6097 174.819 69.7912 164.426 63.9204 162.842L60.222 181.923C66.2596 182.647 83.8871 178.548 84.984 178.115L84.9831 178.12Z" fill="#AAACAE"/>
<path d="M84.9831 178.12C85.83 177.785 85.9915 177.25 86.0195 177.024C86.0778 176.804 86.1321 176.253 85.4664 175.626C84.6097 174.819 69.7912 164.426 63.9204 162.842L60.222 181.923C66.2596 182.647 83.8871 178.548 84.984 178.115L84.9831 178.12Z" fill="#AAACAE"/>
<path d="M70.3731 175.262C67.483 174.954 64.5898 174.634 61.7043 174.248L60.217 181.922C66.2545 182.646 83.882 178.547 84.979 178.114C85.6434 177.854 85.8857 177.471 85.9731 177.209C80.7509 176.801 75.583 175.815 70.3741 175.257L70.3731 175.262Z" fill="#76797B"/>
<g style="mix-blend-mode:screen" opacity="0.4">
<path d="M84.877 176.094C84.877 176.094 72.9483 167.987 65.8575 164.682C65.8575 164.682 64.3697 163.8 64.1255 165.385L63.7559 167.292L84.877 176.094ZM61.3739 172.216L62.7073 165.336C62.7073 165.336 63.1563 164.022 61.2584 163.685L47.2557 160.971C47.6958 161.734 48.5016 162.289 49.2459 162.727C50.3199 163.36 51.4279 163.927 52.5028 164.555C54.6771 165.821 56.636 167.414 58.0724 169.508C58.5393 170.186 59.1061 171.026 59.1582 171.786L61.3739 172.216Z" fill="#EFEFF0"/>
</g>
<path d="M63.3722 163.449C63.2811 163.432 63.22 163.341 63.2366 163.255C63.2533 163.169 63.3449 163.103 63.4359 163.12C63.527 163.138 63.5891 163.224 63.5705 163.32C63.5519 163.416 63.4683 163.468 63.3722 163.449ZM62.98 165.473C62.889 165.455 62.8278 165.365 62.8454 165.274C62.8631 165.182 62.9527 165.126 63.0437 165.144C63.0874 165.152 63.1258 165.178 63.1507 165.215C63.1755 165.251 63.1847 165.297 63.1763 165.34C63.1678 165.384 63.1424 165.422 63.1056 165.447C63.0688 165.472 63.0236 165.481 62.98 165.473ZM62.5888 167.491C62.4978 167.474 62.4366 167.383 62.4532 167.297C62.4699 167.211 62.5615 167.145 62.6525 167.162C62.7436 167.18 62.8048 167.271 62.7871 167.362C62.7695 167.453 62.6849 167.51 62.5888 167.491ZM62.1976 169.51C62.1066 169.492 62.0454 169.401 62.063 169.31C62.0807 169.219 62.1713 169.158 62.2623 169.176C62.3534 169.193 62.4146 169.284 62.3969 169.375C62.3793 169.466 62.2937 169.528 62.1976 169.51ZM61.8064 171.528C61.7153 171.511 61.6542 171.42 61.6718 171.329C61.6895 171.238 61.7801 171.177 61.8711 171.194C61.9622 171.212 62.0233 171.303 62.0057 171.394C61.988 171.485 61.9025 171.547 61.8064 171.528ZM61.4142 173.552C61.3232 173.534 61.262 173.443 61.2796 173.352C61.2973 173.261 61.3879 173.2 61.4789 173.218C61.57 173.235 61.6312 173.326 61.6135 173.417C61.5959 173.508 61.5103 173.57 61.4142 173.552ZM61.023 175.57C60.932 175.552 60.8708 175.462 60.8884 175.371C60.9061 175.28 60.9957 175.224 61.0867 175.241C61.1778 175.259 61.239 175.35 61.2223 175.436C61.2056 175.522 61.1191 175.589 61.023 175.57ZM60.6259 177.619C60.5349 177.601 60.4737 177.511 60.4904 177.425C60.507 177.339 60.5986 177.272 60.6897 177.29C60.7807 177.308 60.8429 177.393 60.8242 177.489C60.8056 177.586 60.722 177.638 60.6259 177.619ZM60.2347 179.637C60.1437 179.62 60.0825 179.529 60.1001 179.438C60.1178 179.347 60.2074 179.291 60.2984 179.309C60.3421 179.317 60.3805 179.342 60.4054 179.379C60.4302 179.416 60.4394 179.461 60.431 179.505C60.4225 179.548 60.3971 179.587 60.3603 179.612C60.3235 179.637 60.2783 179.646 60.2347 179.637ZM59.8435 181.656C59.7525 181.638 59.6913 181.548 59.7089 181.457C59.7266 181.365 59.8172 181.304 59.9082 181.322C59.9993 181.34 60.0605 181.43 60.0428 181.521C60.0252 181.612 59.9396 181.674 59.8435 181.656Z" fill="#61626B"/>
<path d="M11.3104 167.641L11.7193 165.531C11.7193 165.531 9.20201 163.002 4.79039 162.257C4.79039 162.257 4.07027 163.346 3.75518 165.08C3.39865 166.811 3.6609 168.085 3.6609 168.085C8.03133 169.042 11.3114 167.636 11.3114 167.636L11.3104 167.641Z" fill="url(#paint6_linear_1_4)"/>
<path d="M9.10782 168.227C10.4859 167.996 11.3104 167.641 11.3104 167.641L11.7193 165.531C11.7193 165.531 11.0686 164.88 9.84749 164.14C9.507 165.003 9.12315 166.388 9.10178 168.231L9.10782 168.227Z" fill="url(#paint7_linear_1_4)"/>
<path d="M5.63423 162.426C5.51282 162.402 5.39745 162.375 5.27196 162.345C5.03113 162.802 4.64021 163.682 4.39019 164.972C4.21861 165.857 4.11993 166.935 4.17591 168.19C4.29732 168.213 4.41367 168.236 4.53198 168.248C4.36666 165.093 5.27634 163.081 5.63521 162.421L5.63423 162.426ZM6.74158 162.724C6.62817 162.687 6.51378 162.654 6.39433 162.62C6.15154 163.088 5.77973 163.95 5.53952 165.189C5.37088 166.059 5.27106 167.116 5.3259 168.35C5.44421 168.362 5.56351 168.369 5.67676 168.381C5.53669 165.393 6.36491 163.449 6.74158 162.724ZM7.60604 168.393C7.72322 168.384 7.84545 168.376 7.95757 168.366C7.92471 166.071 8.45567 164.442 8.83858 163.577C8.73317 163.525 8.62776 163.473 8.5173 163.42C8.29392 163.923 8.01939 164.662 7.83114 165.633C7.68113 166.407 7.58657 167.329 7.60099 168.392L7.60604 168.393ZM7.80601 163.109C7.69864 163.067 7.58718 163.019 7.47377 162.982C7.23212 163.47 6.90553 164.289 6.68688 165.417C6.52511 166.252 6.42497 167.256 6.46726 168.419C6.58754 168.421 6.70275 168.422 6.81796 168.424C6.72922 165.74 7.41168 163.925 7.81009 163.115L7.80601 163.109ZM8.75137 168.279C8.87051 168.26 8.98965 168.241 9.10275 168.226C9.12411 166.383 9.50698 165.003 9.84845 164.135C9.75006 164.074 9.64155 164.011 9.5381 163.949C9.34492 164.431 9.1375 165.068 8.98455 165.857C8.85022 166.55 8.76206 167.357 8.75643 168.28L8.75137 168.279Z" fill="#657483"/>
<g style="mix-blend-mode:multiply" opacity="0.6">
<path d="M11.3104 167.641L11.7193 165.531C11.7193 165.531 9.20201 163.002 4.7904 162.257C4.7904 162.257 4.73832 162.336 4.65734 162.483C5.68592 162.619 6.67704 163.085 7.63621 163.444C8.26722 163.681 9.77057 164.293 9.51656 165.252C9.23184 166.314 4.81412 165.222 3.76612 165.05L3.75926 165.086C3.40273 166.817 3.66498 168.091 3.66498 168.091C8.03541 169.048 11.3155 167.642 11.3155 167.642L11.3104 167.641Z" fill="#B3B5B8"/>
</g>
<g style="mix-blend-mode:multiply" opacity="0.6">
<path d="M11.3104 167.641L11.5202 166.558C8.97243 167.219 6.18265 167.125 3.56902 166.744C3.55575 167.571 3.6599 168.09 3.6599 168.09C8.03033 169.047 11.3104 167.641 11.3104 167.641Z" fill="#B3B5B8"/>
</g>
<path d="M12.8145 159.881L13.2233 157.771C13.2233 157.771 10.706 155.242 6.29442 154.497C6.29442 154.497 5.5743 155.585 5.25921 157.319C4.90268 159.051 5.16493 160.325 5.16493 160.325C9.53536 161.282 12.8154 159.876 12.8154 159.876L12.8145 159.881Z" fill="url(#paint8_linear_1_4)"/>
<path d="M10.6118 160.467C11.9899 160.235 12.8145 159.881 12.8145 159.881L13.2233 157.771C13.2233 157.771 12.5727 157.12 11.3515 156.38C11.011 157.243 10.6272 158.628 10.6058 160.471L10.6118 160.467Z" fill="url(#paint9_linear_1_4)"/>
<path d="M7.13826 154.666C7.01685 154.642 6.90148 154.614 6.77501 154.59C6.53418 155.047 6.14326 155.927 5.89324 157.217C5.72166 158.102 5.62298 159.18 5.67896 160.435C5.80037 160.458 5.91672 160.481 6.03503 160.493C5.86971 157.338 6.77939 155.326 7.13826 154.666ZM8.24464 154.969C8.13123 154.932 8.01684 154.899 7.89739 154.865C7.6546 155.333 7.28278 156.195 7.04257 157.434C6.87393 158.304 6.77411 159.361 6.82895 160.595C6.94726 160.607 7.06558 160.619 7.17981 160.626C7.03974 157.638 7.86796 155.694 8.24464 154.969ZM9.10909 160.638C9.22627 160.629 9.34851 160.621 9.46062 160.611C9.42776 158.316 9.95872 156.687 10.3416 155.822C10.2362 155.77 10.1308 155.718 10.0203 155.665C9.79697 156.168 9.52245 156.907 9.3342 157.878C9.18419 158.652 9.08962 159.574 9.10404 160.637L9.10909 160.638ZM9.30906 155.354C9.20169 155.312 9.09024 155.264 8.97781 155.222C8.73615 155.71 8.40956 156.529 8.19092 157.657C8.02914 158.491 7.929 159.496 7.97129 160.658C8.09157 160.661 8.20678 160.662 8.32298 160.658C8.23424 157.975 8.9167 156.16 9.3151 155.35L9.30906 155.354ZM10.2554 160.519C10.3745 160.5 10.4937 160.481 10.6068 160.466C10.6281 158.623 11.011 157.243 11.3525 156.375C11.2541 156.314 11.1456 156.251 11.0421 156.189C10.849 156.671 10.6415 157.308 10.4886 158.097C10.3543 158.79 10.2661 159.597 10.2605 160.52L10.2554 160.519Z" fill="#657483"/>
<g style="mix-blend-mode:multiply" opacity="0.6">
<path d="M12.8145 159.881L13.2233 157.771C13.2233 157.771 10.706 155.242 6.29443 154.497C6.29443 154.497 6.24235 154.576 6.16136 154.723C7.18994 154.859 8.18107 155.324 9.14023 155.683C9.77125 155.921 11.2746 156.533 11.0206 157.491C10.7359 158.554 6.31814 157.462 5.27015 157.29L5.26329 157.326C4.90676 159.057 5.16901 160.331 5.16901 160.331C9.53944 161.288 12.8195 159.882 12.8195 159.882L12.8145 159.881Z" fill="#B3B5B8"/>
</g>
<g style="mix-blend-mode:multiply" opacity="0.6">
<path d="M12.8145 159.881L13.0243 158.798C10.4765 159.459 7.6867 159.365 5.07308 158.984C5.05981 159.811 5.16396 160.33 5.16396 160.33C9.53439 161.287 12.8145 159.881 12.8145 159.881Z" fill="#B3B5B8"/>
</g>
<path d="M47.8352 163.587C47.8352 163.587 47.0313 160.965 43.5568 159.583C40.0823 158.201 37.3621 156.393 35.636 152.652C33.9098 148.911 28.856 141.297 17.8395 139.749C17.8395 139.749 17.2631 139.527 17.0204 140.346C16.7777 141.165 13.135 155.167 13.135 155.167L12.6801 157.514L47.8362 163.582L47.8352 163.587Z" fill="url(#paint10_linear_1_4)"/>
<path d="M42.6669 162.712C42.6669 162.712 42.0021 160.536 39.1212 159.395C36.2413 158.249 33.9859 156.751 32.5556 153.65C31.1253 150.549 26.9373 144.237 17.8101 142.961C17.8101 142.961 17.332 142.774 17.1319 143.454C16.9318 144.135 13.9115 155.737 13.9115 155.737L13.5341 157.685L42.6659 162.717L42.6669 162.712Z" fill="white"/>
<path style="mix-blend-mode:multiply" d="M47.8352 163.587C47.8352 163.587 47.5364 162.611 46.5113 161.536C43.5062 160.764 25.9194 156.259 21.3678 155.072C16.3859 153.776 16.7392 150.816 17.3124 147.289C17.8856 143.763 19.37 141.521 22.5833 141.976C25.7957 142.436 31.8805 147.032 31.8897 147.039C29.0057 143.855 24.518 140.687 17.8395 139.749C17.8395 139.749 17.2632 139.527 17.0204 140.346C16.7777 141.165 13.1351 155.167 13.1351 155.167L12.6801 157.514L47.8362 163.582L47.8352 163.587Z" fill="url(#paint11_linear_1_4)"/>
<g style="mix-blend-mode:screen">
<path d="M43.2562 159.671C43.2562 159.671 38.6042 158.108 36.4886 154.806C34.373 151.504 33.6959 147.767 29.2388 145.334C29.2388 145.334 32.4626 147.034 34.2924 151.378C36.1212 155.727 37.8133 158.506 43.2612 159.672L43.2562 159.671Z" fill="white"/>
</g>
<path d="M45.5792 175.228C45.5792 175.228 43.8536 177.36 40.1144 177.344C36.3751 177.328 33.1765 177.989 30.1777 180.814C27.1789 183.639 19.6465 188.814 8.84959 186.133C8.84959 186.133 8.23207 186.124 8.3129 185.273C8.39374 184.423 10.2456 170.075 10.2456 170.075L10.7005 167.727L45.5782 175.233L45.5792 175.228Z" fill="url(#paint12_linear_1_4)"/>
<path d="M40.4579 174.109C40.4579 174.109 39.0294 175.874 35.9298 175.861C32.8303 175.848 30.1787 176.395 27.6935 178.737C25.2082 181.079 18.9651 185.37 10.0223 183.143C10.0223 183.143 9.50986 183.133 9.57744 182.432C9.646 181.726 11.179 169.836 11.179 169.836L11.5565 167.888L40.4589 174.104L40.4579 174.109Z" fill="white"/>
<path style="mix-blend-mode:multiply" d="M45.5792 175.228C45.5792 175.228 44.9371 176.022 43.5846 176.636C40.5089 176.229 22.5123 173.838 17.8469 173.238C12.7415 172.579 11.9633 175.457 11.1776 178.942C10.3919 182.427 10.9311 185.062 14.0817 185.84C17.2333 186.614 24.5947 184.624 24.6058 184.621C20.7413 186.496 15.3998 187.76 8.84959 186.133C8.84959 186.133 8.23207 186.124 8.3129 185.273C8.39374 184.423 10.2456 170.075 10.2456 170.075L10.7005 167.727L45.5782 175.233L45.5792 175.228Z" fill="url(#paint13_linear_1_4)"/>
<g style="mix-blend-mode:screen">
<path d="M39.8687 177.149C39.8687 177.149 34.9696 176.861 31.7735 179.134C28.5774 181.406 26.5532 184.62 21.5098 185.212C21.5098 185.212 25.1356 184.839 28.4557 181.493C31.7767 178.142 34.3846 176.197 39.8737 177.15L39.8687 177.149Z" fill="white"/>
</g>
<path d="M41.1391 175.469C49.0319 176.343 54.5808 174.442 56.9038 172.856C57.3156 172.6 57.7227 172.233 57.8733 171.726C57.8882 171.677 57.9031 171.627 57.9129 171.577C57.9227 171.526 57.9325 171.475 57.9322 171.423C57.9816 170.897 57.7412 170.404 57.4549 170.013C55.8978 167.675 51.4556 163.838 43.8079 161.699C36.0104 159.521 13.0849 155.398 13.0849 155.398C13.0849 155.398 11.7795 155.282 10.5132 157.997C10.0572 158.968 9.60936 160.304 9.22718 162.141C8.89656 163.982 8.81803 165.389 8.87292 166.46C9.03322 169.451 10.2876 169.831 10.2876 169.831C10.2876 169.831 33.0935 174.571 41.14 175.464L41.1391 175.469Z" fill="url(#paint14_linear_1_4)"/>
<path style="mix-blend-mode:screen" d="M45.464 167.426C45.464 167.426 45.4081 163.463 41.6932 162.455C37.9783 161.446 13.9306 157.074 13.9306 157.074C13.9306 157.074 12.4281 156.594 11.6125 157.958C10.7961 159.327 9.7599 162.669 12.9238 163.135C16.0826 163.601 42.3962 168.847 42.3962 168.847C42.3962 168.847 45.4695 169.7 45.47 167.422L45.464 167.426Z" fill="url(#paint15_linear_1_4)"/>
<path style="mix-blend-mode:screen" d="M57.5438 171.206C57.5438 171.206 57.4122 170.152 55.5444 168.414C53.6766 166.677 50.201 164.434 50.4261 165.412C50.4261 165.412 51.4112 166.721 51.276 169.991C51.276 169.991 51.2911 170.482 52.0347 170.626C52.7783 170.77 57.631 171.921 57.5438 171.206Z" fill="url(#paint16_linear_1_4)"/>
<g style="mix-blend-mode:multiply">
<path d="M41.1391 175.469C49.0319 176.343 54.5809 174.442 56.9038 172.856C57.3157 172.6 57.7228 172.233 57.8733 171.726C57.8882 171.677 57.9031 171.627 57.9129 171.577C57.9227 171.526 57.9325 171.475 57.9322 171.423C57.9361 171.403 57.935 171.381 57.9338 171.36C57.78 171.666 57.048 172.789 54.4353 173.244C51.3995 173.768 50.2153 173.622 50.2153 173.622C50.2153 173.622 49.4351 173.45 49.7135 172.853C49.997 172.257 50.374 170.231 50.5732 169.23L46.7481 170.09C46.7481 170.09 46.0029 172.391 43.4468 173.014C40.8917 173.631 11.2106 167.343 11.2106 167.343C11.2106 167.343 9.52429 166.891 9.58181 164.671C9.63934 162.451 10.4899 156.79 13.6144 156.241C14.8753 156.018 16.344 156.077 17.6425 156.229C14.8866 155.716 13.096 155.395 13.096 155.395C13.096 155.395 11.7906 155.279 10.5243 157.994C10.0683 158.965 9.62047 160.301 9.23829 162.138C8.90767 163.979 8.82914 165.386 8.88402 166.457C9.04433 169.448 10.2987 169.828 10.2987 169.828C10.2987 169.828 33.1046 174.568 41.1512 175.461L41.1391 175.469Z" fill="#C2BFC0"/>
</g>
<g style="mix-blend-mode:multiply">
<path d="M46.5525 174.566C47.5658 174.51 48.3838 173.918 49.0262 173.177C49.4036 172.746 49.6967 172.236 49.9139 171.711C50.4069 170.494 50.6358 169.232 50.5916 167.916C50.5916 167.916 50.4957 165.216 48.5479 164.298C46.5991 163.384 43.6031 162.431 43.5846 162.716C43.5711 163.002 45.0173 163.178 45.5875 163.892C46.4366 164.954 47.0703 166.153 47.0757 167.56C47.0851 168.974 46.7775 170.615 45.9995 171.813C45.5147 172.554 44.8352 173.162 44.0749 173.619C43.938 173.702 43.7949 173.764 43.6589 173.842C42.8632 174.292 41.4562 173.914 41.3618 174.184C41.2674 174.455 44.4027 174.69 46.5565 174.572L46.5525 174.566Z" fill="#303134"/>
</g>
<g style="mix-blend-mode:multiply">
<path d="M46.5525 174.566C47.5658 174.51 48.3838 173.918 49.0262 173.177C49.4036 172.746 49.6967 172.236 49.9139 171.711C50.0443 171.39 50.1536 171.07 50.2477 170.747C49.9595 170.717 47.7071 170.748 47.7226 169.287C47.7313 168.7 47.7673 168.135 47.68 167.557C47.3608 165.385 45.9816 163.212 43.7067 162.871C44.0688 163.088 45.1171 163.312 45.5865 163.897C46.4356 164.959 47.0693 166.158 47.0747 167.565C47.0841 168.979 46.7766 170.62 45.9985 171.818C45.5138 172.559 44.8342 173.167 44.0739 173.624C43.937 173.707 43.7939 173.769 43.6579 173.847C42.8622 174.297 41.4553 173.919 41.3609 174.19C41.2665 174.46 44.4017 174.695 46.5556 174.577L46.5525 174.566Z" fill="#303134"/>
</g>
<g style="mix-blend-mode:screen">
<path d="M49.6959 165.984C50.011 166.471 50.1793 167.065 50.2627 167.664C50.3761 168.379 50.35 169.082 50.3047 169.803C50.7528 167.328 50.1648 166.165 49.5596 165.333C49.203 164.844 48.7058 164.512 48.3206 164.306C48.8861 164.746 49.3525 165.346 49.6908 165.983L49.6959 165.984Z" fill="#A9ABAE"/>
</g>
<path d="M23.545 157.352C21.6733 156.989 19.921 156.66 18.4064 156.377C17.2282 158.61 14.916 164.041 15.7565 170.943C17.2722 171.248 19.0205 171.597 20.8872 171.959C20.0375 165.023 22.3758 159.566 23.546 157.347L23.545 157.352Z" fill="url(#paint17_linear_1_4)"/>
<path d="M24.6964 166.74C25.8002 166.786 25.9221 165.534 25.9221 165.534L25.9799 165.235C25.9799 165.235 26.3396 164.03 25.2935 163.659C24.2524 163.289 9.31504 161.281 9.31504 161.281C9.31504 161.281 8.50371 160.972 8.10825 161.766L8.0504 162.065C8.12035 162.95 8.98855 162.966 8.98855 162.966C8.98855 162.966 23.5945 166.684 24.6983 166.73L24.6964 166.74Z" fill="white"/>
<path d="M24.6964 166.74C25.8002 166.786 25.9221 165.534 25.9221 165.534L25.9799 165.235C25.9799 165.235 26.3396 164.03 25.2935 163.659C24.2524 163.289 9.31504 161.281 9.31504 161.281C9.31504 161.281 8.50371 160.972 8.10825 161.766L8.0504 162.065C8.12035 162.95 8.98855 162.966 8.98855 162.966C8.98855 162.966 23.5945 166.684 24.6983 166.73L24.6964 166.74Z" fill="#5A5B5D"/>
<path d="M24.6362 165.29C25.4505 165.421 25.4394 164.91 25.4394 164.91L25.46 164.804C25.46 164.804 25.6161 164.377 24.8065 164.194C24.002 164.012 8.87697 161.537 8.87697 161.537C8.87697 161.537 9.56679 162.826 24.6372 165.285L24.6362 165.29Z" fill="white"/>
<path d="M17.4485 144.177C17.322 144.152 17.2364 144.026 17.2609 143.899C17.2854 143.773 17.4122 143.687 17.5387 143.712C17.6652 143.736 17.7518 143.858 17.7263 143.989C17.7008 144.121 17.575 144.201 17.4485 144.177ZM16.7865 146.374C16.66 146.349 16.5744 146.223 16.5989 146.096C16.6234 145.97 16.7502 145.884 16.8767 145.908C17.0032 145.933 17.0888 146.06 17.0643 146.186C17.0398 146.313 16.913 146.398 16.7865 146.374Z" fill="#5A5B5D"/>
<path d="M16.0422 148.319C16.0173 148.447 16.1012 148.572 16.2298 148.596C16.3583 148.621 16.4827 148.537 16.5076 148.409C16.5325 148.28 16.4485 148.156 16.32 148.131C16.1914 148.106 16.0671 148.19 16.0422 148.319Z" fill="#5A5B5D"/>
<path d="M15.6234 150.804C15.497 150.78 15.4113 150.653 15.4358 150.526C15.4603 150.4 15.5872 150.314 15.7136 150.339C15.8401 150.363 15.9257 150.49 15.9012 150.617C15.8767 150.743 15.7499 150.829 15.6234 150.804ZM15.2194 153.051C15.093 153.027 15.0073 152.9 15.0318 152.773C15.0563 152.647 15.1832 152.561 15.3096 152.586C15.4361 152.61 15.5217 152.737 15.4972 152.863C15.4727 152.99 15.3459 153.076 15.2194 153.051ZM14.5514 155.252C14.4249 155.228 14.3393 155.101 14.3638 154.974C14.3883 154.848 14.5151 154.762 14.6416 154.787C14.7681 154.811 14.8537 154.938 14.8292 155.064C14.8047 155.191 14.6779 155.277 14.5514 155.252Z" fill="#5A5B5D"/>
<path d="M9.8113 182.336C9.78639 182.464 9.87038 182.589 9.9989 182.614C10.1274 182.638 10.2518 182.554 10.2767 182.426C10.3016 182.297 10.2176 182.173 10.0891 182.148C9.96058 182.123 9.83621 182.207 9.8113 182.336Z" fill="#5A5B5D"/>
<path d="M10.018 180.051C9.99312 180.179 10.0771 180.304 10.2056 180.328C10.3341 180.353 10.4585 180.269 10.4834 180.141C10.5083 180.012 10.4243 179.888 10.2958 179.863C10.1673 179.838 10.0429 179.922 10.018 180.051Z" fill="#5A5B5D"/>
<path d="M10.331 177.786C10.306 177.915 10.39 178.039 10.5186 178.064C10.6471 178.089 10.7715 178.005 10.7964 177.876C10.8213 177.748 10.7373 177.623 10.6088 177.598C10.4802 177.574 10.3559 177.658 10.331 177.786Z" fill="#5A5B5D"/>
<path d="M10.8721 175.319C10.7456 175.294 10.6188 175.38 10.5943 175.507C10.5698 175.633 10.6554 175.76 10.7819 175.784C10.9083 175.809 11.0352 175.723 11.0597 175.597C11.0842 175.47 10.9985 175.344 10.8721 175.319ZM11.3368 173.084C11.2103 173.059 11.0835 173.145 11.059 173.271C11.0344 173.398 11.1201 173.525 11.2466 173.549C11.373 173.574 11.4999 173.488 11.5244 173.362C11.5489 173.235 11.4632 173.108 11.3368 173.084ZM11.5384 170.798C11.4119 170.773 11.2861 170.854 11.2606 170.985C11.2351 171.117 11.3217 171.239 11.4482 171.263C11.5747 171.288 11.7015 171.202 11.726 171.076C11.7505 170.949 11.6649 170.822 11.5384 170.798Z" fill="#5A5B5D"/>
</g>
</g>
<defs>
<linearGradient id="paint0_linear_1_4" x1="6.6294" y1="175.111" x2="1.79466" y2="174.762" gradientUnits="userSpaceOnUse">
<stop offset="0.46" stop-color="#E5E0DF"/>
<stop offset="1" stop-color="#8CA99C"/>
</linearGradient>
<linearGradient id="paint1_linear_1_4" x1="6.11958" y1="177.741" x2="1.28483" y2="177.392" gradientUnits="userSpaceOnUse">
<stop offset="0.46" stop-color="#E5E0DF"/>
<stop offset="1" stop-color="#8CA99C"/>
</linearGradient>
<linearGradient id="paint2_linear_1_4" x1="12.2759" y1="145.977" x2="7.44117" y2="145.628" gradientUnits="userSpaceOnUse">
<stop offset="0.46" stop-color="#E5E0DF"/>
<stop offset="1" stop-color="#8CA99C"/>
</linearGradient>
<linearGradient id="paint3_linear_1_4" x1="11.7661" y1="148.608" x2="6.93132" y2="148.259" gradientUnits="userSpaceOnUse">
<stop offset="0.46" stop-color="#E5E0DF"/>
<stop offset="1" stop-color="#8CA99C"/>
</linearGradient>
<linearGradient id="paint4_linear_1_4" x1="75.8311" y1="175.049" x2="43.3386" y2="168.752" gradientUnits="userSpaceOnUse">
<stop offset="0.69" stop-color="#E5E0DF"/>
<stop offset="1" stop-color="#727876"/>
</linearGradient>
<linearGradient id="paint5_linear_1_4" x1="38.3463" y1="164.855" x2="35.7833" y2="178.079" gradientUnits="userSpaceOnUse">
<stop offset="0.69" stop-color="#E5E0DF"/>
<stop offset="1" stop-color="#727876"/>
</linearGradient>
<linearGradient id="paint6_linear_1_4" x1="13.7257" y1="165.931" x2="1.14246" y2="165.019" gradientUnits="userSpaceOnUse">
<stop offset="0.46" stop-color="#E5E0DF"/>
<stop offset="1" stop-color="#8CA99C"/>
</linearGradient>
<linearGradient id="paint7_linear_1_4" x1="13.6865" y1="166.485" x2="1.10333" y2="165.573" gradientUnits="userSpaceOnUse">
<stop offset="0.46" stop-color="#E5E0DF"/>
<stop offset="1" stop-color="#8CA99C"/>
</linearGradient>
<linearGradient id="paint8_linear_1_4" x1="15.2297" y1="158.171" x2="2.6455" y2="157.264" gradientUnits="userSpaceOnUse">
<stop offset="0.46" stop-color="#E5E0DF"/>
<stop offset="1" stop-color="#8CA99C"/>
</linearGradient>
<linearGradient id="paint9_linear_1_4" x1="15.1906" y1="158.725" x2="2.60638" y2="157.818" gradientUnits="userSpaceOnUse">
<stop offset="0.46" stop-color="#E5E0DF"/>
<stop offset="1" stop-color="#8CA99C"/>
</linearGradient>
<linearGradient id="paint10_linear_1_4" x1="55.5493" y1="141.904" x2="17.9962" y2="157.925" gradientUnits="userSpaceOnUse">
<stop offset="0.46" stop-color="#E5E0DF"/>
<stop offset="1" stop-color="#454949"/>
</linearGradient>
<linearGradient id="paint11_linear_1_4" x1="33.8871" y1="149.84" x2="21.4365" y2="167.473" gradientUnits="userSpaceOnUse">
<stop offset="0.46" stop-color="#E5E0DF"/>
<stop offset="1" stop-color="#454949"/>
</linearGradient>
<linearGradient id="paint12_linear_1_4" x1="44.6337" y1="198.223" x2="15.7853" y2="169.332" gradientUnits="userSpaceOnUse">
<stop offset="0.46" stop-color="#E5E0DF"/>
<stop offset="1" stop-color="#454949"/>
</linearGradient>
<linearGradient id="paint13_linear_1_4" x1="27.5052" y1="182.768" x2="22.5435" y2="161.761" gradientUnits="userSpaceOnUse">
<stop offset="0.46" stop-color="#E5E0DF"/>
<stop offset="1" stop-color="#454949"/>
</linearGradient>
<linearGradient id="paint14_linear_1_4" x1="35.1917" y1="158.491" x2="31.5905" y2="177.072" gradientUnits="userSpaceOnUse">
<stop offset="0.69" stop-color="#E5E0DF"/>
<stop offset="1" stop-color="#B2B8B4"/>
</linearGradient>
<linearGradient id="paint15_linear_1_4" x1="32.4818" y1="157.389" x2="21.4914" y2="172.958" gradientUnits="userSpaceOnUse">
<stop offset="0.46" stop-color="#E5E0DF"/>
<stop offset="1" stop-color="#454949"/>
</linearGradient>
<linearGradient id="paint16_linear_1_4" x1="54.336" y1="167.771" x2="51.7905" y2="171.372" gradientUnits="userSpaceOnUse">
<stop offset="0.46" stop-color="#E5E0DF"/>
<stop offset="1" stop-color="#454949"/>
</linearGradient>
<linearGradient id="paint17_linear_1_4" x1="21.5926" y1="151.42" x2="17.9462" y2="170.234" gradientUnits="userSpaceOnUse">
<stop offset="0.46" stop-color="#E5E0DF"/>
<stop offset="1" stop-color="#454949"/>
</linearGradient>
<clipPath id="clip0_1_4">
<rect width="1440" height="320" fill="white"/>
</clipPath>
<clipPath id="clip1_1_4">
<rect width="47.3192" height="83.0341" fill="white" transform="translate(90.5208 153.799) rotate(100.969)"/>
</clipPath>
</defs>
</svg>
