<svg xmlns="http://www.w3.org/2000/svg" xmlns:xlink="http://www.w3.org/1999/xlink" viewBox="0 0 91.83 161.14">
  <defs>
    <linearGradient id="linear-gradient" x1="71.58" x2="72.7" y1="151.96" y2="161.3" gradientUnits="userSpaceOnUse">
      <stop offset=".46" stop-color="#e5e0df"/>
      <stop offset="1" stop-color="#8ca99c"/>
    </linearGradient>
    <linearGradient xlink:href="#linear-gradient" id="linear-gradient-2" x1="76.78" x2="77.9" y1="151.96" y2="161.3"/>
    <linearGradient xlink:href="#linear-gradient" id="linear-gradient-3" x1="13.99" x2="15.11" y1="151.96" y2="161.3"/>
    <linearGradient xlink:href="#linear-gradient" id="linear-gradient-4" x1="19.19" x2="20.31" y1="151.96" y2="161.3"/>
    <linearGradient id="linear-gradient-5" x1="45.91" x2="45.91" y1="20.14" y2="84.37" gradientUnits="userSpaceOnUse">
      <stop offset=".69" stop-color="#e5e0df"/>
      <stop offset="1" stop-color="#727876"/>
    </linearGradient>
    <linearGradient xlink:href="#linear-gradient-5" id="linear-gradient-6" x1="40.33" x2="66.47" y1="95.32" y2="95.32"/>
    <linearGradient xlink:href="#linear-gradient" id="linear-gradient-7" x1="51.47" x2="54.38" y1="141.83" y2="166.14"/>
    <linearGradient xlink:href="#linear-gradient" id="linear-gradient-8" x1="52.54" x2="55.45" y1="141.7" y2="166.01"/>
    <linearGradient xlink:href="#linear-gradient" id="linear-gradient-9" x1="36.13" x2="39.05" y1="141.83" y2="166.14"/>
    <linearGradient xlink:href="#linear-gradient" id="linear-gradient-10" x1="37.2" x2="40.12" y1="141.7" y2="166.01"/>
    <linearGradient id="linear-gradient-11" x1="-9.75" x2="34.64" y1="71.02" y2="136.65" gradientUnits="userSpaceOnUse">
      <stop offset=".46" stop-color="#e5e0df"/>
      <stop offset="1" stop-color="#454949"/>
    </linearGradient>
    <linearGradient xlink:href="#linear-gradient-11" id="linear-gradient-12" x1="13.37" x2="51.56" y1="109.36" y2="126.57"/>
    <linearGradient xlink:href="#linear-gradient-11" id="linear-gradient-13" x1="851.48" x2="895.87" y1="71.02" y2="136.65" gradientTransform="matrix(-1 0 0 1 953.06 0)"/>
    <linearGradient xlink:href="#linear-gradient-11" id="linear-gradient-14" x1="874.6" x2="912.79" y1="109.36" y2="126.57" gradientTransform="matrix(-1 0 0 1 953.06 0)"/>
    <linearGradient id="linear-gradient-15" x1="29.37" x2="66.1" y1="103.68" y2="103.68" gradientUnits="userSpaceOnUse">
      <stop offset=".69" stop-color="#e5e0df"/>
      <stop offset="1" stop-color="#b2b8b4"/>
    </linearGradient>
    <linearGradient xlink:href="#linear-gradient-11" id="linear-gradient-16" x1="28.27" x2="61.99" y1="109.25" y2="124.44"/>
    <linearGradient xlink:href="#linear-gradient-11" id="linear-gradient-17" x1="39.98" x2="47.78" y1="63.78" y2="67.3"/>
    <linearGradient xlink:href="#linear-gradient-11" id="linear-gradient-18" x1="20.92" x2="58.11" y1="132.2" y2="132.2"/>
    <style>
      .cls-1{fill:#efeff0}.cls-1,.cls-5{mix-blend-mode:screen}.cls-1,.cls-6{opacity:.4}.cls-5,.cls-6,.cls-8{fill:#fff}.cls-9{fill:#657483}.cls-10{fill:#939698}.cls-11,.cls-12{fill:#9d9fa1}.cls-14{fill:#c2c4c6}.cls-15{fill:#aaacae}.cls-16{fill:#3e4042}.cls-17{fill:#626467}.cls-18{fill:#3a3c3f}.cls-19{fill:#5a5b5d}.cls-20{fill:#575a5b}.cls-21{fill:#61626b}.cls-22{fill:#76797b}.cls-12,.cls-24,.cls-26{mix-blend-mode:multiply}.cls-24{fill:#303134}.cls-26{fill:#b3b5b8;opacity:.6}.cls-12{opacity:.5}
    </style>
  </defs>
  <g style="isolation:isolate">
    <g id="Layer_2">
      <g id="Layer_1-2">
        <path d="m69.17 141.35-3.24-2.17v-28.13l3.24-1.45v31.75z" class="cls-10"/>
        <path d="M67 110.51v29.32l2.17 1.52V109.6l-2.17.91z" class="cls-20"/>
        <path d="m81.27 141.35 2.22-1.12v-14.51l-2.22-.75v16.38z" class="cls-10"/>
        <path d="M82.76 125.44v15.13l-1.49.78v-16.38l1.49.47z" class="cls-20"/>
        <path d="m81.85 122.25 1.64-.51v-6.53l-1.64-.33v7.37z" class="cls-10"/>
        <path d="M82.95 115.09v6.8l-1.1.36v-7.37l1.1.21z" class="cls-20"/>
        <path d="M72.76 153.53h-1.6s-1.49 2.2-1.41 5.53c0 0 .9.37 2.21.36 1.32.02 2.21-.36 2.21-.36.08-3.33-1.41-5.53-1.41-5.53Z" class="cls-17"/>
        <path d="M73.5 155.07c-.37-.97-.74-1.53-.74-1.53h-1.6s-.38.57-.75 1.57c.68.13 1.75.21 3.1-.04Z" style="fill:url(#linear-gradient)"/>
        <path d="M69.75 158.43v.28c.37.11 1.07.27 2.04.27.67 0 1.47-.08 2.38-.3v-.27c-2.28.57-3.89.19-4.42.02ZM69.81 157.57c0 .09-.02.18-.03.27.38.11 1.06.26 2 .26.66 0 1.45-.07 2.34-.29 0-.09-.02-.18-.03-.26-2.16.52-3.71.2-4.29.02ZM73.84 156.14c-.02-.09-.04-.17-.07-.25-1.67.35-2.94.19-3.63.03-.02.08-.05.17-.07.26.4.09.98.19 1.72.19.59 0 1.28-.06 2.05-.22ZM69.94 156.74c-.02.09-.03.17-.05.26.39.11 1.04.23 1.89.23.63 0 1.38-.07 2.23-.26-.02-.09-.03-.17-.05-.26-1.95.45-3.38.2-4.02.03ZM73.59 155.32c-.03-.09-.06-.17-.09-.25-1.35.25-2.42.16-3.1.04-.03.08-.06.17-.09.26.38.07.87.13 1.47.13.52 0 1.13-.05 1.8-.18Z" class="cls-18"/>
        <path d="M72.76 153.53h-1.6s-1.49 2.2-1.41 5.53c0 0 .07.03.18.07-.04-.77.15-1.56.28-2.31.08-.5.32-1.68 1.06-1.63.82.06.64 3.44.67 4.23h.03c1.32.02 2.21-.36 2.21-.36.08-3.33-1.41-5.53-1.41-5.53Z" class="cls-26"/>
        <path d="M72.76 153.53h-.82c.85 1.77 1.17 3.82 1.26 5.79.61-.11.97-.26.97-.26.08-3.33-1.41-5.53-1.41-5.53Z" class="cls-26"/>
        <path d="M77.96 153.53h-1.6s-1.49 2.2-1.41 5.53c0 0 .9.37 2.21.36 1.31.02 2.21-.36 2.21-.36.08-3.33-1.41-5.53-1.41-5.53Z" class="cls-17"/>
        <path d="M78.7 155.07c-.37-.97-.74-1.53-.74-1.53h-1.6s-.39.57-.75 1.57c.68.13 1.74.21 3.1-.04Z" style="fill:url(#linear-gradient-2)"/>
        <path d="M74.95 158.43v.28c.37.11 1.07.27 2.04.27.67 0 1.47-.08 2.39-.3v-.27c-2.28.57-3.89.19-4.42.02ZM75.01 157.57l-.03.27c.38.11 1.06.26 2 .26.66 0 1.45-.07 2.34-.29 0-.09-.02-.18-.03-.26-2.16.52-3.71.2-4.29.02ZM79.04 156.14c-.02-.09-.04-.17-.07-.25-1.68.35-2.94.19-3.63.03-.02.08-.05.17-.07.26.4.09.98.19 1.72.19.59 0 1.28-.06 2.05-.22ZM75.14 156.74c-.02.09-.03.17-.05.26.39.11 1.04.23 1.89.23.63 0 1.38-.07 2.23-.26-.02-.09-.03-.17-.05-.26-1.95.45-3.38.2-4.02.03ZM78.79 155.32c-.03-.09-.06-.17-.09-.25-1.35.25-2.42.16-3.1.04-.03.08-.06.17-.09.26.38.07.87.13 1.47.13.53 0 1.13-.05 1.8-.18Z" class="cls-18"/>
        <path d="M77.96 153.53h-1.6s-1.49 2.2-1.41 5.53c0 0 .07.03.18.07-.04-.77.15-1.56.28-2.31.08-.5.32-1.68 1.06-1.63.82.06.64 3.44.67 4.23h.03c1.31.02 2.21-.36 2.21-.36.08-3.33-1.41-5.53-1.41-5.53Z" class="cls-26"/>
        <path d="M77.96 153.53h-.82c.85 1.77 1.17 3.82 1.26 5.79.61-.11.97-.26.97-.26.08-3.33-1.41-5.53-1.41-5.53Z" class="cls-26"/>
        <path d="M75.38 146.83v-.11l-.44.06-.44-.06v.11l-6.95.86 2.05 8.07h10.68l2.05-8.07-6.95-.86z" class="cls-11"/>
        <path d="M77.72 147.12c-.41 2.34-.93 4.66-1.27 7.02-.08.54-.13 1.08-.19 1.62h4.01l2.06-8.07-4.61-.56ZM68.21 147.6l-.66.08 2.05 8.07h.78c-.77-2.71-1.49-5.42-2.17-8.15Z" class="cls-12"/>
        <path d="M67.55 68.39h14.79v79.29H67.55z" class="cls-14"/>
        <path d="M67.55 144.63h14.79v3.05H67.55zM67.55 84.66h14.79v1.24H67.55zM67.55 87.29h14.79v1.24H67.55z" class="cls-16"/>
        <path d="M75.91 50.58c-.37-.59-.79-.63-.96-.61-.17-.01-.59.03-.96.61-.48.76-6.09 13.32-6.43 17.94h14.79c-.33-4.61-5.95-17.18-6.43-17.94Z" class="cls-22"/>
        <path d="M74.41 50.96s-4.33 10.08-5.77 15.85c0 0-.44 1.24.78 1.19h5.52s1.91.27 1.8-1.42c-.11-1.69-2.33-15.62-2.33-15.62ZM76.05 69.07h-6.46s-1.04-.3-1.02 2.74v68.98s-.06 2.51 1.18 3.3l5.5.4s1.6 0 1.6-3.02V71.19s0-2.12-.8-2.11Z" class="cls-6"/>
        <path d="M70.48 155.14c0 .16-.13.29-.29.29s-.3-.13-.3-.29.13-.29.3-.29.29.13.29.29Z" class="cls-14"/>
        <circle cx="72.09" cy="155.14" r=".29" class="cls-14"/>
        <circle cx="73.99" cy="155.14" r=".29" class="cls-14"/>
        <circle cx="75.89" cy="155.14" r=".29" class="cls-14"/>
        <circle cx="77.8" cy="155.14" r=".29" class="cls-14"/>
        <path d="M80 155.14c0 .16-.13.29-.29.29s-.3-.13-.3-.29.13-.29.3-.29.29.13.29.29Z" class="cls-14"/>
        <path d="M77.89 113.87h3.38v2.02h-3.38zM77.89 116.34h3.38v1.05h-3.38zM77.89 127.05h3.38v1.14h-3.38zM77.89 128.65h3.38v5.09h-3.38zM77.89 134.2h3.38v3.21h-3.38zM77.89 142h3.38v1.32h-3.38z" class="cls-18"/>
        <path d="M68.31 73.68c0 .1-.08.19-.18.19s-.19-.08-.19-.19.08-.18.19-.18.18.08.18.18ZM70.58 73.68c0 .1-.08.19-.19.19s-.18-.08-.18-.19.08-.18.18-.18.19.08.19.18ZM72.85 73.68c0 .1-.08.19-.19.19s-.19-.08-.19-.19.08-.18.19-.18.19.08.19.18ZM75.13 73.68c0 .1-.08.19-.18.19s-.19-.08-.19-.19.08-.18.19-.18.18.08.18.18ZM77.4 73.68c0 .1-.08.19-.18.19s-.19-.08-.19-.19.08-.18.19-.18.18.08.18.18ZM79.67 73.68c0 .1-.08.19-.19.19s-.18-.08-.18-.19.08-.18.18-.18.19.08.19.18ZM81.94 73.68c0 .1-.08.19-.19.19s-.18-.08-.18-.19.08-.18.18-.18.19.08.19.18ZM68.31 112.95c0 .1-.08.18-.18.18s-.19-.08-.19-.18.08-.18.19-.18.18.08.18.18ZM70.58 112.95c0 .1-.08.18-.19.18s-.18-.08-.18-.18.08-.18.18-.18.19.08.19.18ZM72.85 112.95c0 .1-.08.18-.19.18s-.19-.08-.19-.18.08-.18.19-.18.19.08.19.18ZM75.13 112.95c0 .1-.08.18-.18.18s-.19-.08-.19-.18.08-.18.19-.18.18.08.18.18ZM77.4 112.95c0 .1-.08.18-.18.18s-.19-.08-.19-.18.08-.18.19-.18.18.08.18.18ZM79.67 112.95c0 .1-.08.18-.19.18s-.18-.08-.18-.18.08-.18.18-.18.19.08.19.18ZM81.94 112.95c0 .1-.08.18-.19.18s-.18-.08-.18-.18.08-.18.18-.18.19.08.19.18Z" class="cls-21"/>
        <path d="m11.58 141.35-3.24-2.17v-28.13l3.24-1.45v31.75z" class="cls-10"/>
        <path d="M9.41 110.51v29.32l2.17 1.52V109.6l-2.17.91z" class="cls-20"/>
        <path d="m23.68 141.35 2.22-1.12v-14.51l-2.22-.75v16.38z" class="cls-10"/>
        <path d="M25.17 125.44v15.13l-1.49.78v-16.38l1.49.47z" class="cls-20"/>
        <path d="m24.27 122.25 1.63-.51v-6.53l-1.63-.33v7.37z" class="cls-10"/>
        <path d="M25.36 115.09v6.8l-1.09.36v-7.37l1.09.21z" class="cls-20"/>
        <path d="M15.17 153.53h-1.6s-1.49 2.2-1.41 5.53c0 0 .9.37 2.21.36 1.32.02 2.21-.36 2.21-.36.08-3.33-1.41-5.53-1.41-5.53Z" class="cls-17"/>
        <path d="M15.91 155.07c-.37-.97-.74-1.53-.74-1.53h-1.6s-.39.57-.75 1.57c.68.13 1.75.21 3.1-.04Z" style="fill:url(#linear-gradient-3)"/>
        <path d="M12.16 158.43v.28c.37.11 1.07.27 2.04.27.67 0 1.47-.08 2.39-.3v-.27c-2.29.57-3.89.19-4.42.02ZM12.22 157.57c0 .09-.02.18-.03.27.38.11 1.06.26 2 .26.66 0 1.45-.07 2.34-.29 0-.09-.02-.18-.03-.26-2.17.52-3.71.2-4.29.02ZM16.25 156.14c-.02-.09-.04-.17-.07-.25-1.67.35-2.94.19-3.63.03-.02.08-.05.17-.07.26.4.09.98.19 1.72.19.59 0 1.28-.06 2.05-.22ZM12.36 156.74c-.02.09-.03.17-.05.26.39.11 1.04.23 1.89.23.63 0 1.38-.07 2.23-.26-.02-.09-.03-.17-.05-.26-1.95.45-3.38.2-4.02.03ZM16 155.32c-.03-.09-.06-.17-.09-.25-1.35.25-2.42.16-3.1.04-.03.08-.06.17-.09.26.38.07.87.13 1.47.13.52 0 1.13-.05 1.8-.18Z" class="cls-18"/>
        <path d="M15.17 153.53h-1.6s-1.49 2.2-1.41 5.53c0 0 .07.03.18.07-.04-.77.15-1.56.28-2.31.08-.5.32-1.68 1.06-1.63.82.06.65 3.44.67 4.23h.03c1.32.02 2.21-.36 2.21-.36.08-3.33-1.41-5.53-1.41-5.53Z" class="cls-26"/>
        <path d="M15.17 153.53h-.82c.84 1.77 1.17 3.82 1.26 5.79.61-.11.97-.26.97-.26.08-3.33-1.41-5.53-1.41-5.53Z" class="cls-26"/>
        <path d="M20.37 153.53h-1.6s-1.49 2.2-1.41 5.53c0 0 .9.37 2.21.36 1.31.02 2.21-.36 2.21-.36.08-3.33-1.41-5.53-1.41-5.53Z" class="cls-17"/>
        <path d="M21.11 155.07c-.36-.97-.74-1.53-.74-1.53h-1.6s-.39.57-.75 1.57c.68.13 1.75.21 3.1-.04Z" style="fill:url(#linear-gradient-4)"/>
        <path d="M17.36 158.43v.28c.37.11 1.07.27 2.04.27.67 0 1.47-.08 2.39-.3v-.27c-2.29.57-3.89.19-4.42.02ZM17.42 157.57c0 .09-.02.18-.03.27.38.11 1.06.26 2 .26.66 0 1.45-.07 2.34-.29 0-.09-.02-.18-.03-.26-2.16.52-3.71.2-4.29.02ZM21.45 156.14c-.02-.09-.04-.17-.07-.25-1.68.35-2.94.19-3.63.03-.02.08-.05.17-.07.26.4.09.98.19 1.72.19.59 0 1.28-.06 2.05-.22ZM17.55 156.74c-.02.09-.03.17-.05.26.39.11 1.04.23 1.89.23.63 0 1.38-.07 2.23-.26-.01-.09-.03-.17-.05-.26-1.95.45-3.38.2-4.02.03ZM21.2 155.32c-.03-.09-.06-.17-.09-.25-1.35.25-2.42.16-3.1.04-.03.08-.06.17-.09.26.38.07.88.13 1.47.13.53 0 1.13-.05 1.8-.18Z" class="cls-18"/>
        <path d="M20.37 153.53h-1.6s-1.49 2.2-1.41 5.53c0 0 .07.03.18.07-.05-.77.15-1.56.28-2.31.08-.5.32-1.68 1.06-1.63.82.06.64 3.44.67 4.23h.03c1.31.02 2.21-.36 2.21-.36.08-3.33-1.41-5.53-1.41-5.53Z" class="cls-26"/>
        <path d="M20.37 153.53h-.82c.85 1.77 1.17 3.82 1.26 5.79.61-.11.97-.26.97-.26.08-3.33-1.41-5.53-1.41-5.53Z" class="cls-26"/>
        <path d="M17.8 146.83v-.11l-.45.06-.44-.06v.11l-6.95.86 2.06 8.07H22.69l2.06-8.07-6.95-.86z" class="cls-11"/>
        <path d="M20.14 147.12c-.41 2.34-.93 4.66-1.27 7.02-.08.54-.14 1.08-.19 1.62h4.01l2.06-8.07-4.61-.56ZM10.63 147.6l-.66.08 2.06 8.07h.78c-.77-2.71-1.49-5.42-2.17-8.15Z" class="cls-12"/>
        <path d="M9.96 68.39h14.78v79.29H9.96z" class="cls-14"/>
        <path d="M9.96 144.63h14.78v3.05H9.96zM9.96 84.66h14.78v1.24H9.96zM9.96 87.29h14.78v1.24H9.96z" class="cls-16"/>
        <path d="M18.32 50.58c-.37-.59-.79-.63-.96-.61-.17-.01-.59.03-.96.61-.48.76-6.09 13.32-6.43 17.94h14.78c-.33-4.61-5.95-17.18-6.43-17.94Z" class="cls-22"/>
        <path d="M16.82 50.96s-4.33 10.08-5.77 15.85c0 0-.44 1.24.78 1.19h5.52s1.91.27 1.8-1.42c-.11-1.69-2.33-15.62-2.33-15.62ZM18.46 69.07H12s-1.04-.3-1.02 2.74v68.98s-.06 2.51 1.18 3.3l5.5.4s1.6 0 1.6-3.02V71.19s0-2.12-.8-2.11Z" class="cls-6"/>
        <circle cx="12.6" cy="155.14" r=".29" class="cls-14"/>
        <path d="M14.79 155.14c0 .16-.13.29-.29.29s-.3-.13-.3-.29.13-.29.3-.29.29.13.29.29ZM16.7 155.14c0 .16-.13.29-.29.29s-.3-.13-.3-.29.13-.29.3-.29.29.13.29.29Z" class="cls-14"/>
        <circle cx="18.31" cy="155.14" r=".29" class="cls-14"/>
        <circle cx="20.21" cy="155.14" r=".29" class="cls-14"/>
        <path d="M22.41 155.14c0 .16-.13.29-.29.29s-.3-.13-.3-.29.13-.29.3-.29.29.13.29.29Z" class="cls-14"/>
        <path d="M20.3 113.87h3.38v2.02H20.3zM20.3 116.34h3.38v1.05H20.3zM20.3 127.05h3.38v1.14H20.3zM20.3 128.65h3.38v5.09H20.3zM20.3 134.2h3.38v3.21H20.3zM20.3 142h3.38v1.32H20.3z" class="cls-18"/>
        <path d="M10.72 73.68c0 .1-.08.19-.18.19s-.19-.08-.19-.19.08-.18.19-.18.18.08.18.18ZM12.99 73.68c0 .1-.08.19-.19.19s-.18-.08-.18-.19.08-.18.18-.18.19.08.19.18ZM15.27 73.68c0 .1-.08.19-.19.19s-.19-.08-.19-.19.08-.18.19-.18.19.08.19.18ZM17.54 73.68c0 .1-.08.19-.19.19s-.19-.08-.19-.19.08-.18.19-.18.19.08.19.18ZM19.81 73.68c0 .1-.08.19-.18.19s-.18-.08-.18-.19.08-.18.18-.18.18.08.18.18ZM22.08 73.68c0 .1-.08.19-.19.19s-.18-.08-.18-.19.08-.18.18-.18.19.08.19.18ZM24.36 73.68c0 .1-.08.19-.19.19s-.19-.08-.19-.19.08-.18.19-.18.19.08.19.18ZM10.72 112.95c0 .1-.08.18-.18.18s-.19-.08-.19-.18.08-.18.19-.18.18.08.18.18ZM12.99 112.95c0 .1-.08.18-.19.18s-.18-.08-.18-.18.08-.18.18-.18.19.08.19.18ZM15.27 112.95c0 .1-.08.18-.19.18s-.19-.08-.19-.18.08-.18.19-.18.19.08.19.18ZM17.54 112.95c0 .1-.08.18-.19.18s-.19-.08-.19-.18.08-.18.19-.18.19.08.19.18ZM19.81 112.95c0 .1-.08.18-.18.18s-.18-.08-.18-.18.08-.18.18-.18.18.08.18.18ZM22.08 112.95c0 .1-.08.18-.19.18s-.18-.08-.18-.18.08-.18.18-.18.19.08.19.18ZM24.36 112.95c0 .1-.08.18-.19.18s-.19-.08-.19-.18.08-.18.19-.18.19.08.19.18Z" class="cls-21"/>
        <path d="M27.05 47.01h37.72v96.62H27.05z" style="fill:url(#linear-gradient-5)"/>
        <path d="M47.2 47.01h17.58v96.62H47.2z" style="mix-blend-mode:multiply;fill:url(#linear-gradient-6)"/>
        <path d="M27.05 53.13h37.72v2.8H27.05z" class="cls-16"/>
        <path d="M48.38 1.57C47.43.08 46.35-.03 45.91 0c-.44-.03-1.51.07-2.46 1.57-1.22 1.93-15.55 34-16.4 45.77h37.72C63.92 35.57 49.6 3.5 48.37 1.57Z" class="cls-15"/>
        <path d="M48.38 1.57C47.43.08 46.35-.03 45.91 0c-.44-.03-1.51.07-2.46 1.57-1.22 1.93-15.55 34-16.4 45.77h37.72C63.92 35.57 49.6 3.5 48.37 1.57Z" class="cls-15"/>
        <path d="M48.33 30.46c.48 5.62.94 11.25 1.27 16.89h15.17C63.92 35.58 49.6 3.51 48.37 1.58 47.63.41 46.81.09 46.28.02c1.15 10.1 1.18 20.31 2.04 30.44Z" class="cls-22"/>
        <path d="M44.56 2.52S33.52 28.24 29.84 42.97c0 0-1.13 3.16 1.98 3.04h3.77l8.97-43.49ZM45.85 48.73h-13.6s-2.67-.37-2.61 3.37v27.68c1.29-1.12 2.05-2.86 2.61-4.44.81-2.28 1.48-4.6 2.28-6.88 1.61-4.61 3.92-8.93 7.38-12.44 1.12-1.14 2.51-2.53 3.94-2.91v-4.38Z" class="cls-1"/>
        <path d="M28.41 48.16c0 .18-.15.33-.32.33s-.33-.15-.33-.33.14-.33.33-.33.32.14.32.33ZM32.41 48.16c0 .18-.15.33-.33.33s-.32-.15-.32-.33a.324.324 0 1 1 .65 0ZM36.4 48.16c0 .18-.15.33-.32.33s-.33-.15-.33-.33.15-.33.33-.33.32.14.32.33ZM40.39 48.16c0 .18-.15.33-.33.33s-.33-.15-.33-.33.15-.33.33-.33.33.14.33.33ZM44.38 48.16c0 .18-.15.33-.33.33s-.33-.15-.33-.33.15-.33.33-.33.33.14.33.33ZM48.38 48.16c0 .18-.15.33-.33.33s-.33-.15-.33-.33.15-.33.33-.33.33.14.33.33ZM52.37 48.16c0 .18-.15.33-.33.33s-.32-.15-.32-.33.15-.33.32-.33.33.14.33.33ZM56.42 48.16c0 .18-.15.33-.32.33s-.33-.15-.33-.33.14-.33.33-.33.32.14.32.33ZM60.41 48.16c0 .18-.15.33-.33.33s-.32-.15-.32-.33a.324.324 0 1 1 .65 0ZM64.4 48.16c0 .18-.15.33-.33.33s-.33-.15-.33-.33.15-.33.33-.33.33.14.33.33Z" class="cls-21"/>
        <path d="M55.62 145.8h-4.17s-3.89 5.73-3.68 14.41c0 0 2.34.97 5.76.93 3.43.04 5.76-.93 5.76-.93.21-8.68-3.68-14.41-3.68-14.41Z" style="fill:url(#linear-gradient-7)"/>
        <path d="M57.55 149.78c-.95-2.54-1.93-3.98-1.93-3.98h-4.17s-1 1.48-1.96 4.08c1.77.33 4.55.55 8.07-.09Z" style="fill:url(#linear-gradient-8)"/>
        <path d="M47.78 158.54c0 .24-.01.47-.02.72.96.29 2.78.71 5.33.71 1.75 0 3.84-.21 6.21-.78 0-.24 0-.47-.02-.7-5.95 1.48-10.12.49-11.51.05ZM47.94 156.32c-.03.23-.05.46-.07.7.98.29 2.76.68 5.21.68 1.72 0 3.77-.2 6.1-.76-.02-.23-.05-.46-.07-.68-5.64 1.37-9.65.51-11.17.06ZM58.42 152.58c-.06-.22-.12-.45-.18-.66-4.36.91-7.66.5-9.45.09-.06.22-.12.44-.18.67 1.04.24 2.55.49 4.47.49 1.53 0 3.32-.16 5.34-.58ZM48.28 154.15c-.04.22-.09.45-.12.68 1.02.28 2.7.6 4.93.6 1.65 0 3.6-.18 5.8-.69-.04-.23-.08-.45-.12-.67-5.08 1.16-8.79.53-10.48.07ZM57.78 150.44c-.08-.22-.16-.44-.23-.65-3.52.64-6.29.42-8.07.09-.08.21-.16.44-.24.66.99.19 2.28.35 3.84.35 1.37 0 2.94-.13 4.7-.46Z" class="cls-9"/>
        <path d="M55.62 145.8h-4.17s-3.89 5.73-3.68 14.41c0 0 .17.07.48.17-.12-2.01.4-4.07.73-6.03.22-1.29.83-4.38 2.75-4.25 2.13.15 1.68 8.97 1.74 11.03h.07c3.43.04 5.76-.93 5.76-.93.21-8.68-3.68-14.41-3.68-14.41Z" class="cls-26"/>
        <path d="M55.62 145.8h-2.14c2.2 4.61 3.05 9.96 3.29 15.08 1.58-.28 2.53-.67 2.53-.67.21-8.68-3.68-14.41-3.68-14.41Z" class="cls-26"/>
        <path d="M40.28 145.8h-4.17s-3.89 5.73-3.68 14.41c0 0 2.34.97 5.76.93 3.43.04 5.76-.93 5.76-.93.21-8.68-3.68-14.41-3.68-14.41Z" style="fill:url(#linear-gradient-9)"/>
        <path d="M42.21 149.78c-.95-2.54-1.93-3.98-1.93-3.98h-4.17s-1 1.48-1.96 4.08c1.77.33 4.55.55 8.07-.09Z" style="fill:url(#linear-gradient-10)"/>
        <path d="M32.44 158.54c0 .24-.01.47-.01.72.96.29 2.78.71 5.33.71 1.75 0 3.84-.21 6.21-.78 0-.24 0-.47-.02-.7-5.95 1.48-10.12.49-11.51.05ZM32.61 156.32c-.03.23-.05.46-.07.7.98.29 2.76.68 5.21.68 1.72 0 3.77-.2 6.1-.76-.02-.23-.04-.46-.07-.68-5.64 1.37-9.65.51-11.17.06ZM43.09 152.58c-.06-.22-.12-.45-.18-.66-4.36.91-7.66.5-9.45.09-.06.22-.12.44-.18.67 1.04.24 2.55.49 4.47.49 1.53 0 3.32-.16 5.34-.58ZM32.95 154.15c-.04.22-.09.45-.13.68 1.02.28 2.7.6 4.93.6 1.65 0 3.6-.18 5.8-.69-.04-.23-.08-.45-.13-.67-5.08 1.16-8.79.53-10.48.07ZM42.44 150.44c-.08-.22-.16-.44-.23-.65-3.52.64-6.29.42-8.07.09-.08.21-.16.44-.24.66.99.19 2.28.35 3.84.35 1.37 0 2.94-.13 4.7-.46Z" class="cls-9"/>
        <path d="M40.28 145.8h-4.17s-3.89 5.73-3.68 14.41c0 0 .17.07.48.17-.12-2.01.4-4.07.73-6.03.22-1.29.83-4.38 2.75-4.25 2.13.15 1.68 8.97 1.74 11.03h.07c3.43.04 5.76-.93 5.76-.93.21-8.68-3.68-14.41-3.68-14.41Z" class="cls-26"/>
        <path d="M40.28 145.8h-2.14c2.2 4.61 3.05 9.96 3.29 15.08 1.58-.28 2.53-.67 2.53-.67.21-8.68-3.68-14.41-3.68-14.41Z" class="cls-26"/>
        <path d="M34.41 77.71s-4.7 2.5-6.05 9.63c-1.35 7.13-3.79 12.98-10.28 17.65-6.49 4.67-19.13 17.11-18.01 38.67 0 0-.21 1.18 1.44 1.34 1.65.16 29.67 1.93 29.67 1.93h4.64L34.4 77.71Z" style="fill:url(#linear-gradient-11)"/>
        <path d="M34.65 87.88s-3.9 2.07-5.01 7.98c-1.12 5.91-3.14 10.76-8.52 14.63-5.38 3.87-15.86 14.18-14.92 32.04 0 0-.18.98 1.19 1.11 1.37.13 24.59 1.6 24.59 1.6h3.85l-1.17-57.36Z" class="cls-8"/>
        <path d="M34.41 77.71s-1.75.93-3.42 3.28c-.36 6.01-2.45 41.18-3.03 50.29-.63 9.97-6.4 10.39-13.33 10.6-6.93.21-11.75-1.79-12.07-8.08-.31-6.29 6.2-19.58 6.21-19.6-5 6.67-9.38 16.39-8.7 29.46 0 0-.21 1.18 1.44 1.34 1.65.16 29.67 1.93 29.67 1.93h4.64L34.4 77.71Z" style="fill:url(#linear-gradient-12);mix-blend-mode:multiply"/>
        <path d="M28.64 87.88s-1.26 9.44-6.77 14.69-12.38 7.92-15.37 17.31c0 0 2.05-6.77 9.65-11.86 7.61-5.09 12.28-9.34 12.49-20.15Z" class="cls-5"/>
        <path d="M57.42 77.71s4.7 2.5 6.05 9.63c1.35 7.13 3.79 12.98 10.28 17.65 6.49 4.67 19.13 17.11 18.01 38.67 0 0 .21 1.18-1.44 1.34-1.65.16-29.67 1.93-29.67 1.93h-4.64l1.42-69.22Z" style="fill:url(#linear-gradient-13)"/>
        <path d="M57.18 87.88s3.89 2.07 5.01 7.98c1.12 5.91 3.14 10.76 8.52 14.63 5.38 3.87 15.86 14.18 14.92 32.04 0 0 .17.98-1.19 1.11-1.37.13-24.59 1.6-24.59 1.6H56l1.17-57.36Z" class="cls-8"/>
        <path d="M57.42 77.71s1.75.93 3.42 3.28c.36 6.01 2.45 41.18 3.03 50.29.63 9.97 6.4 10.39 13.33 10.6 6.93.21 11.75-1.79 12.07-8.08.31-6.29-6.2-19.58-6.21-19.6 5 6.67 9.38 16.38 8.7 29.46 0 0 .21 1.18-1.44 1.34-1.65.16-29.67 1.93-29.67 1.93h-4.64l1.42-69.22Z" style="fill:url(#linear-gradient-14);mix-blend-mode:multiply"/>
        <path d="M63.19 87.88s1.26 9.44 6.77 14.69 12.38 7.92 15.37 17.31c0 0-2.05-6.77-9.65-11.86-7.61-5.09-12.28-9.34-12.49-20.15Z" class="cls-5"/>
        <path d="M59.52 86.08c-1.25-15.36-6.92-25.23-10.8-29.07-.64-.69-1.49-1.33-2.51-1.43-.1-.01-.2-.02-.3-.02-.1 0-.2 0-.3.02-1.02.1-1.87.74-2.51 1.43-3.88 3.83-9.55 13.71-10.8 29.07-1.27 15.66-.66 60.86-.66 60.86s.26 2.53 5.9 3.94c2.02.51 4.73.87 8.37.92 3.63-.05 6.34-.42 8.36-.92 5.64-1.41 5.9-3.94 5.9-3.94s.61-45.2-.66-60.86Z" style="fill:url(#linear-gradient-15)"/>
        <path d="M42.6 80.81s-7.53 1.57-8.08 9.02c-.55 7.45 0 54.88 0 54.88s-.36 3.04 2.54 4.09c2.91 1.05 9.66 1.79 9.38-4.41-.28-6.19 0-58.26 0-58.26s.49-6.17-3.85-5.33Z" style="fill:url(#linear-gradient-16);mix-blend-mode:screen"/>
        <path d="M45.34 56.4s-1.96.64-4.58 4.84-5.61 11.65-3.83 10.86c0 0 2.13-2.36 8.41-3.31 0 0 .93-.21.93-1.68s.4-11.14-.93-10.71Z" style="fill:url(#linear-gradient-17);mix-blend-mode:screen"/>
        <g style="mix-blend-mode:multiply">
          <path d="M59.52 86.08c-1.25-15.36-6.92-25.23-10.8-29.07-.64-.69-1.49-1.33-2.51-1.43-.1-.01-.2-.02-.3-.02-.1 0-.2 0-.3.02-.04 0-.08.01-.12.02.64.18 3.05 1.16 4.88 5.97 2.12 5.59 2.28 7.9 2.28 7.9s-.04 1.55-1.28 1.24c-1.24-.32-5.24-.29-7.22-.3l3.05 6.97s4.66.57 6.79 5.21c2.12 4.64 1.1 63.51 1.1 63.51s-.24 3.38-4.49 4.09-15.35 1.18-17.55-4.57c-.89-2.32-1.32-5.14-1.51-7.67.04 5.44.09 8.97.09 8.97s.26 2.53 5.9 3.94c2.02.51 4.73.87 8.37.92 3.63-.05 6.34-.42 8.36-.92 5.64-1.41 5.9-3.94 5.9-3.94s.61-45.2-.66-60.86Z" style="fill:#c2bfc0"/>
        </g>
        <path d="M55.8 76.1c-.48-1.91-1.91-3.25-3.56-4.2-.96-.56-2.04-.93-3.12-1.15-2.5-.49-4.99-.46-7.48.11 0 0-5.11 1.18-6.14 5.23-1.02 4.05-1.73 10.11-1.18 10.04.55-.08.35-2.9 1.5-4.25 1.71-2.01 3.76-3.66 6.44-4.19 2.69-.54 5.93-.56 8.5.48 1.59.65 3 1.72 4.15 3 .21.23.38.48.58.71 1.15 1.35.95 4.17 1.5 4.25.55.08-.16-5.98-1.18-10.04Z" class="cls-24"/>
        <path d="M55.8 76.1c-.48-1.91-1.91-3.25-3.56-4.2-.96-.56-2.04-.93-3.12-1.15-.66-.13-1.31-.22-1.96-.28.05.56.94 4.84-1.85 5.35-1.12.2-2.21.34-3.28.72-4.02 1.41-7.65 4.84-7.46 9.3.28-.77.32-2.85 1.26-3.96 1.71-2.01 3.76-3.66 6.44-4.19 2.69-.54 5.93-.56 8.5.48 1.59.65 3 1.72 4.15 3 .21.23.38.48.58.71 1.15 1.35.95 4.17 1.5 4.25.55.08-.16-5.98-1.18-10.04Z" class="cls-24"/>
        <path d="M38.29 73.28c.81-.78 1.88-1.32 2.99-1.7 1.32-.48 2.67-.69 4.06-.87-4.88.06-6.88 1.61-8.24 3.07-.8.86-1.25 1.93-1.5 2.74.63-1.24 1.6-2.35 2.69-3.23Z" style="fill:#a9abae;mix-blend-mode:screen"/>
        <path d="M31.5 126.29c0 3.7.02 7.16.04 10.15 4.69 1.42 15.89 3.82 28.73-.33.02-3 .04-6.46.04-10.15-12.9 4.18-24.16 1.74-28.82.33Z" style="fill:url(#linear-gradient-18)"/>
        <path d="M48.96 120.63c-.32-2.12-2.75-1.89-2.75-1.89h-.59s-2.43-.24-2.75 1.89c-.32 2.12 1.37 31.32 1.37 31.32s-.29 1.66 1.37 2.12h.59c1.66-.46 1.37-2.12 1.37-2.12s1.69-29.2 1.37-31.32Z" class="cls-8"/>
        <path d="M48.96 120.63c-.32-2.12-2.75-1.89-2.75-1.89h-.59s-2.43-.24-2.75 1.89c-.32 2.12 1.37 31.32 1.37 31.32s-.29 1.66 1.37 2.12h.59c1.66-.46 1.37-2.12 1.37-2.12s1.69-29.2 1.37-31.32Z" class="cls-19"/>
        <path d="M46.22 121.28c-.05-1.6-1.02-1.39-1.02-1.39h-.21s-.87-.14-.92 1.47c-.05 1.6.82 31.33.82 31.33s2.2-1.79 1.32-31.41Z" class="cls-8"/>
        <path d="M8.65 142.77c0 .25-.21.46-.46.46s-.46-.21-.46-.46.2-.46.46-.46.46.21.46.46ZM13.08 143.22c0 .25-.21.46-.46.46s-.46-.21-.46-.46.21-.46.46-.46.46.21.46.46Z" class="cls-19"/>
        <circle cx="17.06" cy="143.46" r=".46" class="cls-19"/>
        <path d="M21.95 143.8c0 .25-.21.46-.46.46s-.46-.21-.46-.46.21-.46.46-.46.46.21.46.46ZM26.38 143.74c0 .25-.21.46-.46.46s-.46-.21-.46-.46.21-.46.46-.46.46.21.46.46ZM30.82 144.2c0 .25-.21.46-.46.46s-.46-.21-.46-.46.21-.46.46-.46.46.21.46.46Z" class="cls-19"/>
        <circle cx="84.17" cy="142.77" r=".46" class="cls-19"/>
        <circle cx="79.74" cy="143.22" r=".46" class="cls-19"/>
        <circle cx="75.31" cy="143.46" r=".46" class="cls-19"/>
        <path d="M70.41 143.8c0 .25.21.46.46.46s.46-.21.46-.46-.21-.46-.46-.46-.46.21-.46.46ZM65.98 143.74c0 .25.21.46.46.46s.46-.21.46-.46-.21-.46-.46-.46-.46.21-.46.46ZM61.55 144.2c0 .25.2.46.46.46s.46-.21.46-.46-.21-.46-.46-.46-.46.21-.46.46Z" class="cls-19"/>
      </g>
    </g>
  </g>
</svg>